<?xml version="1.0" encoding="UTF-8"?>
<svg version="1.1" xmlns="http://www.w3.org/2000/svg" width="600" height="400">
<path d="M0 0 C146.85 0 293.7 0 445 0 C445 122.43 445 244.86 445 371 C298.15 371 151.3 371 0 371 C0 248.57 0 126.14 0 0 Z " fill="#FCFDFE" transform="translate(0,0)"/>
<path d="M0 0 C101.97 0 203.94 0 309 0 C304.6254705 8.74905899 300.07092348 15.57928049 294 23 C293.53674316 23.57298828 293.07348633 24.14597656 292.59619141 24.73632812 C262.19185967 62.15382816 218.99825347 83.70279201 171.49316406 89.64257812 C125.02036022 94.39769308 77.6730107 79.64000245 41.57910156 50.31787109 C36.88072448 46.39674563 32.42742595 42.22164418 28 38 C26.81277344 36.89205078 26.81277344 36.89205078 25.6015625 35.76171875 C17.09764569 27.60094244 10.27099853 18.16576051 3.875 8.3125 C3.48441406 7.71219971 3.09382813 7.11189941 2.69140625 6.4934082 C0 2.25260831 0 2.25260831 0 0 Z " fill="#004AAD" transform="translate(70,275)"/>
<path d="M0 0 C113.85 0 227.7 0 345 0 C345.99 4.29 346.98 8.58 348 13 C232.17 13 116.34 13 -3 13 C-2 4 -2 4 0 0 Z " fill="#3597FA" transform="translate(52,137)"/>
<path d="M0 0 C106.92 0 213.84 0 324 0 C329 10 329 10 329 13 C218.78 13 108.56 13 -5 13 C-2 4 -2 4 0 0 Z " fill="#3596FA" transform="translate(62,109)"/>
<path d="M0 0 C117.48 0 234.96 0 356 0 C357 5 357 5 357 12 C239.19 12 121.38 12 0 12 C0 8.04 0 4.08 0 0 Z " fill="#3597FA" transform="translate(46,164)"/>
<path d="M0 0 C1.78676062 -0.02529327 1.78676062 -0.02529327 3.60961741 -0.05109751 C6.90950386 -0.08851071 10.20486196 -0.08561696 13.50460112 -0.06538892 C17.06526035 -0.05325195 20.62540478 -0.09281113 24.18588257 -0.1255188 C31.15866893 -0.18095581 38.13066522 -0.18716796 45.10362939 -0.17490511 C50.77235593 -0.16551207 56.44084484 -0.17220911 62.10954857 -0.19032669 C62.91654261 -0.19286068 63.72353664 -0.19539467 64.55498504 -0.19800545 C66.1944483 -0.20317223 67.83391152 -0.20835298 69.47337469 -0.21354754 C84.84789581 -0.25990314 100.22196808 -0.24797266 115.59650233 -0.21820779 C129.65526035 -0.19277457 143.71268965 -0.23945583 157.77120284 -0.32043664 C172.21199455 -0.40298381 186.65216086 -0.43733462 201.09318846 -0.41941416 C209.1986195 -0.41018787 217.302955 -0.41985798 225.4081974 -0.47980881 C232.3096395 -0.53030537 239.20928315 -0.5350932 246.11073164 -0.48136739 C249.63093209 -0.45520044 253.14786935 -0.4496823 256.66786575 -0.50102615 C277.28203506 -0.78195273 277.28203506 -0.78195273 282.28855681 2.50634336 C285.72904407 5.87200608 287.68261988 9.6101615 289.25358582 14.16976929 C289.25358582 14.49976929 289.25358582 14.82976929 289.25358582 15.16976929 C187.28358582 15.16976929 85.31358582 15.16976929 -19.74641418 15.16976929 C-15.26586153 3.96838765 -12.47944456 -0.19459387 0 0 Z " fill="#3C97FA" transform="translate(89.74641418457031,79.83023071289063)"/>
<path d="M0 0 C0.99319539 -0.01515333 1.98639079 -0.03030666 3.00968301 -0.04591918 C6.3301715 -0.08781314 9.64861498 -0.07982517 12.96932983 -0.07171631 C15.35320437 -0.0910295 17.73705703 -0.11322734 20.12088013 -0.13809204 C25.92037188 -0.18966729 31.71924083 -0.20790516 37.51894982 -0.20835367 C42.23699082 -0.20894814 46.95486568 -0.22100187 51.67286301 -0.24108124 C65.06810179 -0.29695334 78.46294719 -0.32465433 91.85830183 -0.31457093 C92.94048237 -0.31375731 92.94048237 -0.31375731 94.04452515 -0.31292725 C95.12803733 -0.31210453 95.12803733 -0.31210453 96.23343866 -0.3112652 C107.92921927 -0.3040712 119.62359135 -0.36310813 131.31899519 -0.45267466 C143.34611007 -0.54405394 155.37254416 -0.58664532 167.40001428 -0.57858253 C174.1453054 -0.57501989 180.88919159 -0.59098191 187.63417435 -0.65918732 C193.983174 -0.72035725 200.32914232 -0.71850001 206.67821503 -0.66919327 C209.00133019 -0.66162291 211.32464266 -0.67602073 213.64744949 -0.71461868 C232.99726162 -1.01468438 232.99726162 -1.01468438 240.23570669 5.64182687 C246.98251343 12.74743555 246.98251343 12.74743555 246.98251343 14.92926025 C157.88251343 14.92926025 68.78251343 14.92926025 -23.01748657 14.92926025 C-21.03748657 12.61926025 -19.05748657 10.30926025 -17.01748657 7.92926025 C-16.43503319 7.20914269 -15.85257982 6.48902512 -15.25247633 5.74708581 C-10.62799228 0.45770824 -6.83827385 -0.08563196 0 0 Z " fill="#3891F9" transform="translate(112.01748657226563,53.07073974609375)"/>
<path d="M0 0 C144.87 0 289.74 0 439 0 C439 2.64 439 5.28 439 8 C294.13 8 149.26 8 0 8 C0 5.36 0 2.72 0 0 Z " fill="#004AAD" transform="translate(5,260)"/>
<path d="M0 0 C144.87 0 289.74 0 439 0 C439 2.64 439 5.28 439 8 C294.13 8 149.26 8 0 8 C0 5.36 0 2.72 0 0 Z " fill="#004AAD" transform="translate(0,188)"/>
<path d="M0 0 C4.56581796 0.03309343 9.1314973 0.01510383 13.69738531 0.00496149 C21.35844001 -0.00404352 29.01851221 0.0274305 36.67934942 0.08354425 C45.50270646 0.14767992 54.32429523 0.14758846 63.14777815 0.11311471 C71.68241865 0.08125514 80.2164185 0.09493036 88.7510314 0.12898874 C92.36246715 0.14263783 95.9733822 0.14076154 99.58480978 0.12589884 C103.84566554 0.11043767 108.10453777 0.13524996 112.36505651 0.18959665 C113.91686002 0.2032259 115.46885138 0.20371062 117.02064657 0.18916559 C128.47102572 0.09430373 135.8831255 2.78815527 145.31850958 9.27739191 C146.51308625 10.06798156 146.51308625 10.06798156 147.73179579 10.87454271 C149.3036494 11.9485183 150.82158015 13.10123307 152.31850958 14.27739191 C152.31850958 14.60739191 152.31850958 14.93739191 152.31850958 15.27739191 C83.67850958 15.27739191 15.03850958 15.27739191 -55.68149042 15.27739191 C-54.03149042 13.95739191 -52.38149042 12.63739191 -50.68149042 11.27739191 C-49.79905664 10.44120325 -48.91662287 9.60501459 -48.00744867 8.74348688 C-34.71942709 -2.51472127 -16.3533708 -0.14934403 0 0 Z " fill="#3B8AF8" transform="translate(175.68149042129517,24.72260808944702)"/>
<path d="M0 0 C2.27557429 2.08778198 3.64982391 3.96893709 4.9453125 6.76538086 C5.29577637 7.51303207 5.64624023 8.26068329 6.00732422 9.0309906 C6.37615723 9.83416214 6.74499023 10.63733368 7.125 11.46484375 C7.51316895 12.29456192 7.90133789 13.12428009 8.30126953 13.97914124 C9.54037053 16.62909287 10.77091195 19.282891 12 21.9375 C13.22973694 24.58821817 14.4614033 27.23796285 15.69873047 29.88514709 C16.46797316 31.53131329 17.23280982 33.17954744 17.99267578 34.83006287 C20.44716321 40.26442877 20.44716321 40.26442877 24 45 C26.95720628 45.66680368 26.95720628 45.66680368 30 45 C34.02370133 41.84910701 35.67570181 37.77022496 37.56640625 33.1640625 C37.88657211 32.40709076 38.20673798 31.65011902 38.53660583 30.87020874 C39.55446007 28.45889594 40.55891377 26.0422814 41.5625 23.625 C42.5723322 21.21606663 43.58491408 18.80831557 44.59910583 16.4012146 C45.22777678 14.90661742 45.85348451 13.41076915 46.47572327 11.91348267 C48.17013951 7.85782901 49.98439692 3.9102317 52 0 C54.27557429 2.08778198 55.64982391 3.96893709 56.9453125 6.76538086 C57.29577637 7.51303207 57.64624023 8.26068329 58.00732422 9.0309906 C58.56057373 10.23574791 58.56057373 10.23574791 59.125 11.46484375 C59.51316895 12.29456192 59.90133789 13.12428009 60.30126953 13.97914124 C61.54037053 16.62909287 62.77091195 19.282891 64 21.9375 C65.22973694 24.58821817 66.4614033 27.23796285 67.69873047 29.88514709 C68.46797316 31.53131329 69.23280982 33.17954744 69.99267578 34.83006287 C72.35805153 39.8974386 74.23580925 43.82387283 79 47 C73.39 47 67.78 47 62 47 C66 45 66 45 68 45 C67.4946875 43.86820313 66.989375 42.73640625 66.46875 41.5703125 C65.81230711 40.08862711 65.15606763 38.60685159 64.5 37.125 C64.16613281 36.37863281 63.83226562 35.63226563 63.48828125 34.86328125 C63.17246094 34.14785156 62.85664063 33.43242187 62.53125 32.6953125 C62.09135742 31.7055542 62.09135742 31.7055542 61.64257812 30.69580078 C61 29 61 29 61 27 C54.73 27 48.46 27 42 27 C41.505 29.475 41.505 29.475 41 32 C40.484375 33.155 39.96875 34.31 39.4375 35.5 C38.10908922 38.73439147 37.6891749 40.58092386 38 44 C39.98 44.66 41.96 45.32 44 46 C44 46.33 44 46.66 44 47 C32.78 47 21.56 47 10 47 C14 45 14 45 16 45 C15.4946875 43.86820313 14.989375 42.73640625 14.46875 41.5703125 C13.81230711 40.08862711 13.15606763 38.60685159 12.5 37.125 C12.16613281 36.37863281 11.83226562 35.63226563 11.48828125 34.86328125 C11.17246094 34.14785156 10.85664063 33.43242187 10.53125 32.6953125 C10.23798828 32.03547363 9.94472656 31.37563477 9.64257812 30.69580078 C9 29 9 29 9 27 C2.73 27 -3.54 27 -10 27 C-10.33 28.65 -10.66 30.3 -11 32 C-11.515625 33.155 -12.03125 34.31 -12.5625 35.5 C-13.89091078 38.73439147 -14.3108251 40.58092386 -14 44 C-12.02 44.66 -10.04 45.32 -8 46 C-8 46.33 -8 46.66 -8 47 C-13.61 47 -19.22 47 -25 47 C-24.01 46.34 -23.02 45.68 -22 45 C-18.05445369 41.71588553 -16.34161961 37.81242365 -14.43359375 33.1640625 C-14.11342789 32.40709076 -13.79326202 31.65011902 -13.46339417 30.87020874 C-12.44553993 28.45889594 -11.44108623 26.0422814 -10.4375 23.625 C-9.4276678 21.21606663 -8.41508592 18.80831557 -7.40089417 16.4012146 C-6.77222322 14.90661742 -6.14651549 13.41076915 -5.52427673 11.91348267 C-3.82986049 7.85782901 -2.01560308 3.9102317 0 0 Z " fill="#1156B2" transform="translate(191,205)"/>
<path d="M0 0 C0 0.33 0 0.66 0 1 C-30.69 1 -61.38 1 -93 1 C-88.21414867 -2.19056755 -82.59997258 -2.65362236 -77.01123047 -3.64306641 C-75.2249593 -3.96007641 -73.44224344 -4.29697581 -71.66015625 -4.63671875 C-48.48930946 -8.44895842 -22.40363223 -7.39792071 0 0 Z " fill="#4589F7" transform="translate(270,12)"/>
<path d="M0 0 C0.99 0.33 1.98 0.66 3 1 C2.01 1.495 2.01 1.495 1 2 C-1.51518482 4.51518482 -1.47673274 6.39171238 -1.53125 9.8671875 C-0.49929914 14.01016668 2.1932728 16.44334621 5.62109375 18.80859375 C6.55050781 19.34613281 7.47992188 19.88367188 8.4375 20.4375 C12.97964697 23.2550885 16.26178557 25.37336182 19 30 C19.78297591 33.9226318 19.38780637 37.12743566 17.75 40.8125 C15.14920432 44.0634946 12.94928155 45.68357282 9 47 C4.32672122 47.41826247 0.01441945 47.23135882 -4.5625 46.1875 C-7.58369269 43.47617323 -7.49394296 42.26533172 -7.875 38.3125 C-7.94387098 36.54251593 -7.99398535 34.77131325 -8 33 C-4.98859877 34.50570062 -4.4372818 37.10144829 -3.09765625 40.08984375 C-2.00610802 42.31735191 -2.00610802 42.31735191 1 44 C3.44544278 44.31643273 3.44544278 44.31643273 6.0625 44.25 C6.94035156 44.25515625 7.81820313 44.2603125 8.72265625 44.265625 C11.19802328 44.21559352 11.19802328 44.21559352 13 42 C13.79104358 37.29537241 13.89187445 33.27835339 11.125 29.3125 C7.60454729 26.70736499 4.04562238 24.17681739 0.40234375 21.74609375 C-5.45623845 17.48790474 -5.45623845 17.48790474 -6.78515625 13.8515625 C-7.5165082 7.98014547 -7.5165082 7.98014547 -6.0078125 5.1171875 C-4.2360828 2.94708071 -2.51706601 1.25853301 0 0 Z " fill="#1055B2" transform="translate(283,206)"/>
<path d="M0 0 C3 1 3 1 4.7890625 4.45703125 C5.41210509 5.90414086 6.02364209 7.35624558 6.625 8.8125 C6.93695313 9.53759766 7.24890625 10.26269531 7.5703125 11.00976562 C8.99428165 14.36407226 10.11032424 17.44129696 11 21 C5.06 21 -0.88 21 -7 21 C-7.33 22.65 -7.66 24.3 -8 26 C-8.515625 27.155 -9.03125 28.31 -9.5625 29.5 C-10.89091078 32.73439147 -11.3108251 34.58092386 -11 38 C-9.02 38.66 -7.04 39.32 -5 40 C-5 40.33 -5 40.66 -5 41 C-10.61 41 -16.22 41 -22 41 C-21.01 40.34 -20.02 39.68 -19 39 C-14.91183783 35.6132482 -13.30447572 31.74155155 -11.328125 26.953125 C-11.00084412 26.18192322 -10.67356323 25.41072144 -10.33636475 24.6161499 C-9.29840727 22.16451807 -8.27406332 19.70746335 -7.25 17.25 C-6.54646528 15.58165466 -5.84204774 13.91368131 -5.13671875 12.24609375 C-3.41422471 8.16829996 -1.70391305 4.08559076 0 0 Z " fill="#316DBC" transform="translate(188,211)"/>
<path d="M0 0 C2.27557429 2.08778198 3.64982391 3.96893709 4.9453125 6.76538086 C5.29577637 7.51303207 5.64624023 8.26068329 6.00732422 9.0309906 C6.37615723 9.83416214 6.74499023 10.63733368 7.125 11.46484375 C7.51316895 12.29456192 7.90133789 13.12428009 8.30126953 13.97914124 C9.54037053 16.62909287 10.77091195 19.282891 12 21.9375 C13.22973694 24.58821817 14.4614033 27.23796285 15.69873047 29.88514709 C16.46797316 31.53131329 17.23280982 33.17954744 17.99267578 34.83006287 C20.35805153 39.8974386 22.23580925 43.82387283 27 47 C21.39 47 15.78 47 10 47 C14 45 14 45 16 45 C11.39890403 34.02585986 6.78017598 23.14210151 1.21484375 12.6171875 C0 10 0 10 0 7 C-0.66 7 -1.32 7 -2 7 C-1.125 1.125 -1.125 1.125 0 0 Z " fill="#0E54B1" transform="translate(243,205)"/>
<path d="M0 0 C5.94 0 11.88 0 18 0 C18 0.33 18 0.66 18 1 C16.02 1.66 14.04 2.32 12 3 C12 16.2 12 29.4 12 43 C13.98 43.66 15.96 44.32 18 45 C18 45.33 18 45.66 18 46 C12.06 46 6.12 46 0 46 C0 45.67 0 45.34 0 45 C1.98 44.34 3.96 43.68 6 43 C6 29.8 6 16.6 6 3 C4.02 2.34 2.04 1.68 0 1 C0 0.67 0 0.34 0 0 Z " fill="#044DAE" transform="translate(145,206)"/>
<path d="M0 0 C0.66 0 1.32 0 2 0 C3.17133058 2.45620851 4.33721722 4.91474917 5.5 7.375 C5.83386719 8.07367188 6.16773438 8.77234375 6.51171875 9.4921875 C9 14.7734375 9 14.7734375 9 17 C4.05 17 -0.9 17 -6 17 C-5.15813297 12.79066487 -4.10885537 9.58732921 -2.4375 5.6875 C-1.75494141 4.08455078 -1.75494141 4.08455078 -1.05859375 2.44921875 C-0.53458984 1.23685547 -0.53458984 1.23685547 0 0 Z " fill="#F6F8FC" transform="translate(241,213)"/>
<path d="M0 0 C0.66 0 1.32 0 2 0 C3.17133058 2.45620851 4.33721722 4.91474917 5.5 7.375 C5.83386719 8.07367188 6.16773438 8.77234375 6.51171875 9.4921875 C9 14.7734375 9 14.7734375 9 17 C4.05 17 -0.9 17 -6 17 C-5.15813297 12.79066487 -4.10885537 9.58732921 -2.4375 5.6875 C-1.75494141 4.08455078 -1.75494141 4.08455078 -1.05859375 2.44921875 C-0.53458984 1.23685547 -0.53458984 1.23685547 0 0 Z " fill="#F6F8FC" transform="translate(189,213)"/>
<path d="M0 0 C0.99 0.66 1.98 1.32 3 2 C2.34 2 1.68 2 1 2 C0.81824219 2.556875 0.63648438 3.11375 0.44921875 3.6875 C-1.24862185 8.84196991 -3.06422235 13.93010615 -5 19 C0.28 18.67 5.56 18.34 11 18 C11 18.99 11 19.98 11 21 C5.06 21 -0.88 21 -7 21 C-7.33 22.65 -7.66 24.3 -8 26 C-8.89305874 28.39228689 -9.94896026 30.66943362 -11 33 C-11.66 32.34 -12.32 31.68 -13 31 C-8.71 20.77 -4.42 10.54 0 0 Z " fill="#316DBC" transform="translate(240,211)"/>
<path d="M0 0 C3.01140123 1.50570062 3.5627182 4.10144829 4.90234375 7.08984375 C5.99389198 9.31735191 5.99389198 9.31735191 9 11 C11.0492094 11.45139459 11.0492094 11.45139459 13.1875 11.625 C14.445625 11.74875 15.70375 11.8725 17 12 C17 12.66 17 13.32 17 14 C5.05318979 14.63747802 5.05318979 14.63747802 1 11 C0.19352883 7.33028554 0.0127335 3.75001707 0 0 Z " fill="#306CBC" transform="translate(275,239)"/>
<path d="M0 0 C0.33 0 0.66 0 1 0 C1.33 1.98 1.66 3.96 2 6 C3.98 6.66 5.96 7.32 8 8 C8 8.33 8 8.66 8 9 C2.39 9 -3.22 9 -9 9 C-8.01 8.34 -7.02 7.68 -6 7 C-3.60823603 4.75319143 -1.83070613 2.7460592 0 0 Z " fill="#175AB4" transform="translate(175,243)"/>
<path d="M0 0 C4.92127034 -0.16682272 8.50343896 -0.24828052 13 2 C13 4.97 13 7.94 13 11 C11.76602148 9.14903222 10.53600155 7.29540976 9.3125 5.4375 C6.43547583 2.40496101 4.03147909 1.85281288 0 1 C0 0.67 0 0.34 0 0 Z " fill="#1C5EB6" transform="translate(287,205)"/>
<path d="M0 0 C0.33 0 0.66 0 1 0 C1.66 2.64 2.32 5.28 3 8 C0.36 8 -2.28 8 -5 8 C-4.19185349 6.66402348 -3.37836819 5.331275 -2.5625 4 C-2.11003906 3.2575 -1.65757812 2.515 -1.19140625 1.75 C-0.79824219 1.1725 -0.40507812 0.595 0 0 Z " fill="#074FAF" transform="translate(227,243)"/>
<path d="M0 0 C0.66 0.33 1.32 0.66 2 1 C0.7874262 4.72433382 -0.50859979 8.37802806 -2 12 C-2.66 11.34 -3.32 10.68 -4 10 C-2.68 6.7 -1.36 3.4 0 0 Z " fill="#2E6BBC" transform="translate(231,232)"/>
<path d="M0 0 C0.66 0.33 1.32 0.66 2 1 C0.7874262 4.72433382 -0.50859979 8.37802806 -2 12 C-2.66 11.34 -3.32 10.68 -4 10 C-2.68 6.7 -1.36 3.4 0 0 Z " fill="#2E6BBC" transform="translate(179,232)"/>
<path d="M0 0 C0.99 0.33 1.98 0.66 3 1 C-1.455 3.97 -1.455 3.97 -6 7 C-4.14418503 3.28837006 -3.44285416 1.98224936 0 0 Z " fill="#2262B8" transform="translate(283,206)"/>
</svg>

