<?xml version="1.0" encoding="UTF-8"?>
<svg version="1.1" xmlns="http://www.w3.org/2000/svg" width="600" height="400">
<path d="M0 0 C102.96 0 205.92 0 312 0 C310.23113163 4.42217094 308.18738311 8.08370886 305.5625 12 C305.12655518 12.65282959 304.69061035 13.30565918 304.24145508 13.97827148 C299.63571617 20.74082826 294.38426422 26.85482594 289 33 C288.13469482 34.05172349 287.27139386 35.10509932 286.41015625 36.16015625 C284.44385514 38.47701347 282.56324355 40.42752573 280.25 42.375 C278.15944625 44.1454136 276.09722649 45.90700952 274.1171875 47.80078125 C263.72581018 57.64202683 250.79771586 65.67406353 238 72 C236.33324219 72.84111328 236.33324219 72.84111328 234.6328125 73.69921875 C219.50634591 81.15879042 203.56545624 85.95568324 187 89 C186.06148193 89.17805176 185.12296387 89.35610352 184.15600586 89.53955078 C175.15684268 91.10140632 166.29061461 91.39728879 157.1875 91.375 C156.04421738 91.37518127 156.04421738 91.37518127 154.87783813 91.37536621 C141.29184243 91.3448586 128.2626834 90.09091413 115 87 C114.30729004 86.83983398 113.61458008 86.67966797 112.90087891 86.51464844 C108.85886412 85.54258361 104.93254541 84.34373714 101 83 C100.38817871 82.79149414 99.77635742 82.58298828 99.14599609 82.36816406 C56.80549722 67.73430215 21.80578774 39.25041794 0 0 Z " fill="#024BAD" transform="translate(70,272)"/>
<path d="M0 0 C114.18 0 228.36 0 346 0 C349 11 349 11 349 14 C327.38371916 14.74919715 305.79878096 15.1473259 284.16909814 15.11606562 C280.29099574 15.11162884 276.41289427 15.11321661 272.53479004 15.1139679 C265.86081406 15.114485 259.18684807 15.11142492 252.5128746 15.10573006 C242.86416741 15.09750236 233.21546491 15.09498849 223.56675459 15.09374207 C207.90143394 15.09156895 192.23611857 15.08495679 176.57080078 15.07543945 C161.3793948 15.0662198 146.18799026 15.05916142 130.99658203 15.05493164 C130.05565004 15.05466892 129.11471804 15.05440619 128.14527296 15.05413551 C123.42353988 15.0528302 118.70180679 15.05156656 113.98007369 15.05032361 C74.98671206 15.04000535 35.99335647 15.02235943 -3 15 C-2.01 10.05 -1.02 5.1 0 0 Z " fill="#3598FA" transform="translate(53,134)"/>
<path d="M0 0 C5.5870015 -0.00127347 11.17399751 -0.00501953 16.76099706 -0.00973773 C81.42266144 -0.06063317 81.42266144 -0.06063317 108.48670506 1.12283063 C109.49402906 3.05653294 110.49233795 4.99493369 111.48670506 6.93533063 C112.32201756 8.5537486 112.32201756 8.5537486 113.17420506 10.20486188 C114.48670506 13.12283063 114.48670506 13.12283063 114.48670506 16.12283063 C3.60670506 16.12283063 -107.27329494 16.12283063 -221.51329494 16.12283063 C-218.13829494 5.99783063 -218.13829494 5.99783063 -215.51329494 1.12283063 C-143.67612285 0.50101894 -71.8401494 0.01525299 0 0 Z " fill="#3698FA" transform="translate(279.51329493522644,104.87716937065125)"/>
<path d="M0 0 C117.48 0 234.96 0 356 0 C357 4 357 4 357 13 C238.86 13 120.72 13 -1 13 C-0.67 8.71 -0.34 4.42 0 0 Z " fill="#3597FA" transform="translate(48,161)"/>
<path d="M0 0 C0.70139479 0.00234117 1.40278957 0.00468233 2.12543875 0.00709444 C3.23851419 0.00491428 3.23851419 0.00491428 4.37407601 0.00269008 C6.8923445 -0.00099632 9.41055345 0.00252862 11.92882162 0.00595194 C13.73975967 0.00480116 15.55069748 0.00321393 17.36163479 0.0012247 C22.362742 -0.00297458 27.36383029 -0.00087525 32.3649376 0.00221092 C37.74876719 0.00446238 43.1325934 0.00098668 48.51642233 -0.00176901 C59.07313282 -0.00622843 69.62983621 -0.00524947 80.18654698 -0.00235637 C88.76203134 -0.00010301 97.33751369 0.00021048 105.91299826 -0.00088018 C107.13095763 -0.00103341 108.348917 -0.00118665 109.60378423 -0.00134452 C112.07761997 -0.00166423 114.55145571 -0.00198844 117.02529144 -0.00231712 C140.25240145 -0.00517241 163.47950752 -0.00188411 186.70661688 0.00348325 C206.66028508 0.00795133 226.61394747 0.00717542 246.56761557 0.00256449 C269.70850237 -0.0027804 292.84938572 -0.00489772 315.99027306 -0.00182325 C318.45528831 -0.00150468 320.92030356 -0.00119031 323.38531882 -0.00088018 C324.59832752 -0.00072591 325.81133623 -0.00057163 327.06110278 -0.00041268 C335.63173056 0.00045273 344.20235616 -0.00101092 352.77298361 -0.00335974 C363.20989477 -0.00615699 373.64679841 -0.00542107 384.0837087 -0.00007899 C389.41434517 0.00255904 394.74496906 0.00356138 400.07560545 0.00027186 C404.94717339 -0.00268903 409.818717 -0.0011018 414.6902827 0.00424941 C416.46078355 0.00537449 418.23128642 0.00478043 420.00178599 0.00237362 C422.39218012 -0.00062876 424.78248881 0.00241243 427.17287832 0.00709444 C428.22497051 0.00358269 428.22497051 0.00358269 429.29831707 0 C434.03500819 0.01878524 434.03500819 0.01878524 435.14915854 1.13293558 C435.22095818 2.65221596 435.23307861 4.1746104 435.21165854 5.69543558 C435.2026351 6.52172465 435.19361166 7.34801371 435.18431479 8.19934183 C435.16691244 9.15647074 435.16691244 9.15647074 435.14915854 10.13293558 C379.11278177 10.15579941 323.07640546 10.17343251 267.04002494 10.18400091 C260.43195293 10.1852517 253.82388093 10.18654601 247.21580893 10.18786722 C245.24239664 10.18826069 245.24239664 10.18826069 243.22911745 10.1886621 C221.89672069 10.19301937 200.56432704 10.20090722 179.23193181 10.21008838 C157.36053714 10.21942336 135.48914389 10.22499086 113.61774731 10.22702408 C100.11018858 10.22839963 86.60263742 10.23275196 73.09508102 10.24085205 C63.84603709 10.24611759 54.5969971 10.24774032 45.34795178 10.24643696 C40.00314441 10.24579328 34.65835032 10.24681447 29.31354529 10.25214106 C24.42898622 10.25697372 19.5444495 10.25727512 14.65988945 10.25383448 C12.88464742 10.25340865 11.10940404 10.2547055 9.33416469 10.25781877 C6.93736487 10.26178059 4.54064773 10.25970033 2.14384943 10.25598341 C1.08892196 10.25992393 1.08892196 10.25992393 0.01268283 10.26394406 C-4.73669566 10.24708138 -4.73669566 10.24708138 -5.85084146 9.13293558 C-5.98365396 7.32043558 -5.98365396 7.32043558 -5.97584146 5.13293558 C-5.97841959 4.41106058 -5.98099771 3.68918558 -5.98365396 2.94543558 C-5.70651148 -0.83674423 -3.20450904 0.01270876 0 0 Z " fill="#0049AE" transform="translate(6.850841462612152,184.86706441640854)"/>
<path d="M0 0 C145.2 0 290.4 0 440 0 C440 3.3 440 6.6 440 10 C294.8 10 149.6 10 0 10 C0 6.7 0 3.4 0 0 Z " fill="#004AAC" transform="translate(6,257)"/>
<path d="M0 0 C1.52952511 -0.01799877 1.52952511 -0.01799877 3.08994973 -0.03636116 C4.21871494 -0.03940303 5.34748015 -0.04244491 6.51045036 -0.04557896 C8.29926811 -0.06190076 8.29926811 -0.06190076 10.12422359 -0.07855231 C13.44495621 -0.10654547 16.76551349 -0.12542354 20.08631611 -0.14029014 C22.9320891 -0.15465063 25.77778575 -0.17641386 28.6235096 -0.1982656 C38.81830657 -0.27645986 49.01318297 -0.32537942 59.20817375 -0.36993504 C60.83265294 -0.37723918 62.45713208 -0.38455552 64.08161116 -0.39188409 C79.24019663 -0.45956315 94.39880432 -0.51757424 109.55749512 -0.55541229 C113.06996128 -0.56433129 116.58242707 -0.57337857 120.0948925 -0.58258152 C121.40442346 -0.58600007 121.40442346 -0.58600007 122.7404096 -0.58948768 C136.88080907 -0.62784949 151.02039744 -0.71794413 165.16039445 -0.82884865 C179.6743701 -0.94174946 194.187928 -1.00554279 208.7023381 -1.02208239 C216.85323655 -1.0326572 225.00278303 -1.06516928 233.15324593 -1.15321255 C240.09560543 -1.22812572 247.03638206 -1.25892977 253.97912546 -1.23213559 C257.52158749 -1.21983947 261.06069041 -1.22852685 264.60263824 -1.29417896 C285.37448437 -1.65986113 285.37448437 -1.65986113 290.13819838 1.61431479 C293.27231465 4.92144314 296.20036125 9.57679424 296.20036125 14.28240871 C256.99706914 14.45557709 217.79374639 14.61823698 178.59035266 14.76672164 C173.96637737 14.78424421 169.34240241 14.80185415 164.71842766 14.81951809 C163.33755056 14.82479094 163.33755056 14.82479094 161.92877696 14.83017032 C147.00535868 14.88736369 132.08197885 14.951642 117.15860118 15.01851971 C101.85598862 15.08693994 86.55335959 15.14779036 71.25068843 15.20155275 C61.80135166 15.23499123 52.35207791 15.27439704 42.9027984 15.32133709 C36.43090567 15.3529222 29.95901186 15.37718199 23.48706831 15.39558126 C19.74813202 15.40643025 16.009283 15.42060454 12.27039909 15.44344425 C8.22483081 15.46807343 4.17937733 15.47732576 0.13374138 15.48495388 C-1.05884501 15.49467051 -2.25143141 15.50438714 -3.48015678 15.51439822 C-5.09545868 15.51365017 -5.09545868 15.51365017 -6.74339294 15.512887 C-8.14570012 15.51858281 -8.14570012 15.51858281 -9.57633674 15.52439368 C-11.79963875 15.28240871 -11.79963875 15.28240871 -13.79963875 13.28240871 C-12.67784245 11.48873441 -11.55209392 9.69753141 -10.42463875 7.90740871 C-9.79815437 6.90967434 -9.17167 5.91193996 -8.52620125 4.88397121 C-5.83850121 0.83417885 -4.77241961 0.03390698 0 0 Z " fill="#439CF9" transform="translate(84.79963874816895,78.71759128570557)"/>
<path d="M0 0 C1.17722862 -0.00254351 1.17722862 -0.00254351 2.37823963 -0.0051384 C5.02944143 -0.00945083 7.6805842 -0.00642488 10.33178711 -0.00341797 C12.25562572 -0.00494906 14.17946407 -0.00684137 16.103302 -0.00906372 C27.03732619 -0.01733623 37.97129259 0.00827042 48.90527344 0.03662109 C50.64585856 0.0410812 50.64585856 0.0410812 52.42160702 0.04563141 C57.30469973 0.0583342 62.18779003 0.07114179 67.07087517 0.08651733 C83.3691338 0.13723546 99.66506205 0.12202628 115.96309245 0.0244658 C129.43783307 -0.05612565 142.91218793 -0.09481795 156.38717175 -0.09799385 C164.98187732 -0.10174527 173.57493201 -0.14180318 182.16922474 -0.22652328 C188.12310622 -0.28177384 194.07606275 -0.29215982 200.03014946 -0.26890099 C203.49524164 -0.25675641 206.95737939 -0.26420702 210.4220314 -0.32452774 C233.65413675 -0.66575343 233.65413675 -0.66575343 240.47556782 5.42181778 C246.29663086 11.61816484 246.29663086 11.61816484 246.29663086 15.12939453 C157.19663086 15.12939453 68.09663086 15.12939453 -23.70336914 15.12939453 C-21.73998852 11.20263329 -19.89397208 9.02114259 -16.82836914 5.94189453 C-15.96469727 5.06146484 -15.10102539 4.18103516 -14.21118164 3.27392578 C-9.86804276 -0.44006681 -5.51826476 -0.01533477 0 0 Z " fill="#3590F8" transform="translate(114.703369140625,50.87060546875)"/>
<path d="M0 0 C4.61114168 0.04586502 9.22214211 0.0287832 13.83344698 0.02101231 C21.56495089 0.01750119 29.29503794 0.06137645 37.02616549 0.13545322 C45.92916446 0.22027681 54.8300987 0.23411454 63.73342025 0.20920539 C72.35354963 0.186336 80.97296169 0.20911162 89.59298754 0.25389957 C93.23787679 0.27234151 96.88232222 0.27604209 100.52724504 0.26755619 C104.82434056 0.2599549 109.1193692 0.29295326 113.41599321 0.35579777 C114.98067334 0.37259032 116.54556507 0.37629315 118.11029482 0.36503696 C129.60109452 0.29498389 137.03452563 2.97809023 146.50907564 9.48017979 C147.30530525 9.99551651 148.10153486 10.51085323 148.92189264 11.04180622 C150.88407564 12.35517979 150.88407564 12.35517979 153.50907564 14.48017979 C153.50907564 15.14017979 153.50907564 15.80017979 153.50907564 16.48017979 C84.20907564 16.48017979 14.90907564 16.48017979 -56.49092436 16.48017979 C-54.43415684 10.30987724 -47.74159274 7.12042441 -42.26600981 4.14387608 C-29.33632728 -1.73453569 -13.88880569 -0.17083092 0 0 Z " fill="#3587F7" transform="translate(177.49092435836792,22.51982021331787)"/>
<path d="M0 0 C0.70139479 0.00234117 1.40278957 0.00468233 2.12543875 0.00709444 C3.23851419 0.00491428 3.23851419 0.00491428 4.37407601 0.00269008 C6.8923445 -0.00099632 9.41055345 0.00252862 11.92882162 0.00595194 C13.73975967 0.00480116 15.55069748 0.00321393 17.36163479 0.0012247 C22.362742 -0.00297458 27.36383029 -0.00087525 32.3649376 0.00221092 C37.74876719 0.00446238 43.1325934 0.00098668 48.51642233 -0.00176901 C59.07313282 -0.00622843 69.62983621 -0.00524947 80.18654698 -0.00235637 C88.76203134 -0.00010301 97.33751369 0.00021048 105.91299826 -0.00088018 C107.13095763 -0.00103341 108.348917 -0.00118665 109.60378423 -0.00134452 C112.07761997 -0.00166423 114.55145571 -0.00198844 117.02529144 -0.00231712 C140.25240145 -0.00517241 163.47950752 -0.00188411 186.70661688 0.00348325 C206.66028508 0.00795133 226.61394747 0.00717542 246.56761557 0.00256449 C269.70850237 -0.0027804 292.84938572 -0.00489772 315.99027306 -0.00182325 C318.45528831 -0.00150468 320.92030356 -0.00119031 323.38531882 -0.00088018 C324.59832752 -0.00072591 325.81133623 -0.00057163 327.06110278 -0.00041268 C335.63173056 0.00045273 344.20235616 -0.00101092 352.77298361 -0.00335974 C363.20989477 -0.00615699 373.64679841 -0.00542107 384.0837087 -0.00007899 C389.41434517 0.00255904 394.74496906 0.00356138 400.07560545 0.00027186 C404.94717339 -0.00268903 409.818717 -0.0011018 414.6902827 0.00424941 C416.46078355 0.00537449 418.23128642 0.00478043 420.00178599 0.00237362 C422.39218012 -0.00062876 424.78248881 0.00241243 427.17287832 0.00709444 C428.22497051 0.00358269 428.22497051 0.00358269 429.29831707 0 C434.03500819 0.01878524 434.03500819 0.01878524 435.14915854 1.13293558 C435.22095818 2.65221596 435.23307861 4.1746104 435.21165854 5.69543558 C435.2026351 6.52172465 435.19361166 7.34801371 435.18431479 8.19934183 C435.16691244 9.15647074 435.16691244 9.15647074 435.14915854 10.13293558 C379.11278177 10.15579941 323.07640546 10.17343251 267.04002494 10.18400091 C260.43195293 10.1852517 253.82388093 10.18654601 247.21580893 10.18786722 C245.24239664 10.18826069 245.24239664 10.18826069 243.22911745 10.1886621 C221.89672069 10.19301937 200.56432704 10.20090722 179.23193181 10.21008838 C157.36053714 10.21942336 135.48914389 10.22499086 113.61774731 10.22702408 C100.11018858 10.22839963 86.60263742 10.23275196 73.09508102 10.24085205 C63.84603709 10.24611759 54.5969971 10.24774032 45.34795178 10.24643696 C40.00314441 10.24579328 34.65835032 10.24681447 29.31354529 10.25214106 C24.42898622 10.25697372 19.5444495 10.25727512 14.65988945 10.25383448 C12.88464742 10.25340865 11.10940404 10.2547055 9.33416469 10.25781877 C6.93736487 10.26178059 4.54064773 10.25970033 2.14384943 10.25598341 C1.08892196 10.25992393 1.08892196 10.25992393 0.01268283 10.26394406 C-4.73669566 10.24708138 -4.73669566 10.24708138 -5.85084146 9.13293558 C-5.98365396 7.32043558 -5.98365396 7.32043558 -5.97584146 5.13293558 C-5.97841959 4.41106058 -5.98099771 3.68918558 -5.98365396 2.94543558 C-5.70651148 -0.83674423 -3.20450904 0.01270876 0 0 Z M-2.85084146 2.13293558 C-2.85084146 4.11293558 -2.85084146 6.09293558 -2.85084146 8.13293558 C141.02915854 8.13293558 284.90915854 8.13293558 433.14915854 8.13293558 C433.14915854 6.15293558 433.14915854 4.17293558 433.14915854 2.13293558 C289.26915854 2.13293558 145.38915854 2.13293558 -2.85084146 2.13293558 Z " fill="#84A1C8" transform="translate(6.850841462612152,184.86706441640854)"/>
<path d="M0 0 C145.2 0 290.4 0 440 0 C440 3.3 440 6.6 440 10 C294.8 10 149.6 10 0 10 C0 6.7 0 3.4 0 0 Z M2 2 C2 3.98 2 5.96 2 8 C146.21 8 290.42 8 439 8 C439 6.35 439 4.7 439 3 C436.08104643 1.54052321 433.15915338 1.86481982 429.96034813 1.87695217 C429.22359789 1.87579833 428.48684765 1.87464448 427.72777164 1.87345567 C425.23356186 1.87078713 422.73941531 1.87531313 420.24520874 1.87974548 C418.44919432 1.87930983 416.65317995 1.87843503 414.85716593 1.87715632 C409.90199197 1.8749102 404.94683945 1.87893424 399.99166822 1.88393438 C394.65559354 1.88823702 389.31952015 1.88679259 383.98344421 1.8860321 C374.73173102 1.88550675 365.48002487 1.88865474 356.22831345 1.89426994 C342.85175095 1.9023834 329.47519186 1.905 316.09862716 1.90625793 C294.39810628 1.9084487 272.69758916 1.91510944 250.99707031 1.92456055 C229.91210957 1.93373404 208.82714984 1.94081518 187.7421875 1.94506836 C185.79396106 1.94546244 185.79396106 1.94546244 183.8063765 1.94586449 C177.29084678 1.94716949 170.77531705 1.94843321 164.25978732 1.94967639 C110.17318896 1.96004976 56.08659466 1.97766874 2 2 Z " fill="#7C99C6" transform="translate(6,257)"/>
<path d="M0 0 C5.5870015 -0.00127347 11.17399751 -0.00501953 16.76099706 -0.00973773 C81.42266144 -0.06063317 81.42266144 -0.06063317 108.48670506 1.12283063 C108.48670506 1.45283063 108.48670506 1.78283063 108.48670506 2.12283063 C41.79391715 3.10447711 -24.88929887 3.25236632 -91.58846104 3.19485724 C-101.05876676 3.18684332 -110.52907064 3.18141841 -119.99937892 3.17776227 C-120.67794049 3.17749955 -121.35650206 3.17723682 -122.0556261 3.17696614 C-125.46379637 3.17565998 -128.87196665 3.17439654 -132.28013694 3.17315423 C-160.02452833 3.1629871 -187.76891112 3.14548129 -215.51329494 3.12283063 C-215.50169337 3.749315 -215.49009181 4.37579938 -215.47813869 5.02126813 C-215.46911525 5.83853375 -215.46009181 6.65579938 -215.45079494 7.49783063 C-215.43919337 8.30994 -215.42759181 9.12204938 -215.41563869 9.95876813 C-215.51329494 12.12283063 -215.51329494 12.12283063 -216.51329494 14.12283063 C-215.37758713 14.12190884 -214.24187932 14.12098704 -213.07175612 14.12003732 C-185.60956372 14.09799144 -158.14737203 14.08170267 -130.68517252 14.0717653 C-127.24498609 14.07051579 -123.80479969 14.06922136 -120.36461329 14.06789899 C-119.33804205 14.06750552 -119.33804205 14.06750552 -118.29073199 14.06710411 C-108.12264786 14.06310818 -97.95456948 14.05610844 -87.78648829 14.04739118 C-20.68824415 13.99098724 46.39435708 14.18788226 113.48670506 15.12283063 C113.81670506 14.46283063 114.14670506 13.80283063 114.48670506 13.12283063 C114.48670506 14.11283063 114.48670506 15.10283063 114.48670506 16.12283063 C3.60670506 16.12283063 -107.27329494 16.12283063 -221.51329494 16.12283063 C-218.13829494 5.99783063 -218.13829494 5.99783063 -215.51329494 1.12283063 C-143.67612285 0.50101894 -71.8401494 0.01525299 0 0 Z " fill="#A5CFF2" transform="translate(279.51329493522644,104.87716937065125)"/>
<path d="M0 0 C114.18 0 228.36 0 346 0 C345.67 0.66 345.34 1.32 345 2 C231.81 2 118.62 2 2 2 C1.34 5.3 0.68 8.6 0 12 C171.765 12.495 171.765 12.495 347 13 C347 13.33 347 13.66 347 14 C326.12752475 14.7772983 305.28865927 15.14616615 284.40122938 15.11606562 C280.52172848 15.11163738 276.64222856 15.11321605 272.76272583 15.1139679 C266.08325797 15.11448551 259.40380007 15.1114199 252.72433472 15.10573006 C243.06763553 15.09750956 233.41094103 15.0949892 223.75423872 15.09374207 C208.07671633 15.09156786 192.39919922 15.08495264 176.72167969 15.07543945 C161.51660183 15.06622269 146.31152541 15.05916287 131.10644531 15.05493164 C130.16498787 15.05466892 129.22353043 15.05440619 128.25354397 15.05413551 C123.52926962 15.05283022 118.80499527 15.05156657 114.0807209 15.05032361 C75.05381021 15.04000194 36.02690554 15.02235303 -3 15 C-2.01 10.05 -1.02 5.1 0 0 Z " fill="#A0CAF2" transform="translate(53,134)"/>
<path d="M0 0 C117.48 0 234.96 0 356 0 C357 4 357 4 357 13 C238.86 13 120.72 13 -1 13 C-0.67 8.71 -0.34 4.42 0 0 Z M2 2 C1.979375 3.27875 1.95875 4.5575 1.9375 5.875 C1.92589844 6.59429687 1.91429687 7.31359375 1.90234375 8.0546875 C1.87350758 10.08185404 1.87350758 10.08185404 3 12 C47.5709084 12.02286444 92.14181617 12.04049724 136.71272927 12.05106533 C141.96888658 12.05231611 147.22504388 12.05361042 152.48120117 12.05493164 C154.05088046 12.05532511 154.05088046 12.05532511 155.65227044 12.05572652 C172.61976209 12.06008364 189.58725036 12.06797141 206.55474 12.0771528 C223.95128552 12.08648818 241.34782927 12.09205536 258.7443772 12.09408849 C269.4880849 12.09546396 280.23178307 12.09981583 290.97548784 12.10791647 C298.33230148 12.11318251 305.68911016 12.11480462 313.04592555 12.11350138 C317.29709036 12.11285777 321.54823846 12.11387801 325.79940033 12.11920547 C329.68473286 12.12403923 333.57003732 12.12433881 337.45537109 12.12089889 C338.86722398 12.12047318 340.27907857 12.12176912 341.69092809 12.12488318 C343.59757219 12.1288469 345.50422677 12.12615648 347.41087246 12.12304783 C348.47370966 12.12342755 349.53654687 12.12380727 350.63159126 12.1241985 C352.95587569 12.26715998 352.95587569 12.26715998 354 11 C354.07148199 9.64756083 354.08399454 8.29165633 354.0625 6.9375 C354.0315625 4.9884375 354.0315625 4.9884375 354 3 C350.80391439 1.93463813 348.53950187 1.87574776 345.18039417 1.87695217 C343.34787687 1.8739656 343.34787687 1.8739656 341.47833902 1.87091869 C340.11550809 1.87377191 338.75267735 1.87671751 337.3898468 1.87974548 C335.94770212 1.87930965 334.50555751 1.87843452 333.06341332 1.87715632 C329.09103204 1.87491375 325.11867758 1.87892942 321.14629972 1.88393438 C316.86614886 1.88824208 312.58599958 1.88679223 308.30584717 1.8860321 C300.8870387 1.88550707 293.46823901 1.88865171 286.04943275 1.89426994 C275.32300788 1.90238775 264.59658726 1.90500045 253.87015965 1.90625793 C236.468369 1.90844801 219.06658303 1.9151069 201.66479492 1.92456055 C184.75789412 1.93373581 167.85099459 1.94081608 150.9440918 1.94506836 C149.90241851 1.94533108 148.86074522 1.94559381 147.78750608 1.94586449 C142.56187712 1.9471695 137.33624816 1.94843322 132.11061919 1.94967639 C88.74040955 1.96004763 45.37020502 1.97766474 2 2 Z " fill="#8BBCEB" transform="translate(48,161)"/>
<path d="M0 0 C3.05774473 2.60758789 4.43666576 5.61440185 6.14453125 9.21484375 C6.58293587 10.13131432 6.58293587 10.13131432 7.03019714 11.06629944 C7.9636243 13.02057762 8.88834125 14.97882437 9.8125 16.9375 C10.42191726 18.21969057 11.03193797 19.50159451 11.64257812 20.78320312 C11.94251678 21.41312164 12.24245544 22.04304016 12.55148315 22.69204712 C13.15399399 23.95475535 13.75793199 25.21678361 14.36331177 26.4781189 C15.80853871 29.48968449 17.22952721 32.5054608 18.61083984 35.54736328 C19.11437988 36.62614746 19.61791992 37.70493164 20.13671875 38.81640625 C20.57072998 39.7710376 21.00474121 40.72566895 21.4519043 41.70922852 C22.873693 44.13971113 22.873693 44.13971113 25.36645508 45.51147461 C28.00832412 46.21229391 28.00832412 46.21229391 30.53588867 45.2175293 C34.20003207 41.92005437 35.58830563 38.03037081 37.42578125 33.51953125 C38.01446236 32.12754768 38.01446236 32.12754768 38.61503601 30.70744324 C39.86241768 27.74845862 41.08763202 24.78086509 42.3125 21.8125 C43.15545505 19.80212745 43.99983975 17.79235373 44.84570312 15.78320312 C46.91376151 10.86229122 48.96370643 5.93413459 51 1 C51.99 1 52.98 1 54 1 C54.42297363 1.87624023 54.84594727 2.75248047 55.28173828 3.65527344 C56.88002156 6.9657371 58.4794104 10.27566568 60.07910156 13.58544922 C60.76591773 15.00685729 61.45245025 16.42840246 62.13867188 17.85009766 C63.79244074 21.27610714 65.45046111 24.69989008 67.11816406 28.11914062 C68.32118559 30.58749582 69.49537166 33.06322248 70.65527344 35.55273438 C71.15833008 36.61298828 71.66138672 37.67324219 72.1796875 38.765625 C72.82139893 40.14669434 72.82139893 40.14669434 73.47607422 41.55566406 C75.18972098 44.60569971 75.18972098 44.60569971 80 48 C74.06 48 68.12 48 62 48 C62.99 47.01 62.99 47.01 64 46 C64.99 46 65.98 46 67 46 C66.66226563 45.20335937 66.32453125 44.40671875 65.9765625 43.5859375 C65.53054688 42.52632812 65.08453125 41.46671875 64.625 40.375 C64.18414062 39.33085937 63.74328125 38.28671875 63.2890625 37.2109375 C62.0744533 34.18545641 61.03096127 31.0928838 60 28 C51.585 28.495 51.585 28.495 43 29 C42.154375 31.26875 41.30875 33.5375 40.4375 35.875 C40.16736084 36.58769043 39.89722168 37.30038086 39.61889648 38.03466797 C39.02237397 39.67013582 38.50901589 41.33521862 38 43 C38.89335797 45.35785318 38.89335797 45.35785318 42.0625 46.125 C43.031875 46.41375 44.00125 46.7025 45 47 C45 47.33 45 47.66 45 48 C33.45 48 21.9 48 10 48 C10.66 47.34 11.32 46.68 12 46 C12.99 46 13.98 46 15 46 C14.66226563 45.20335937 14.32453125 44.40671875 13.9765625 43.5859375 C13.53054687 42.52632812 13.08453125 41.46671875 12.625 40.375 C12.18414062 39.33085937 11.74328125 38.28671875 11.2890625 37.2109375 C10.0744533 34.18545641 9.03096127 31.0928838 8 28 C-0.415 28.495 -0.415 28.495 -9 29 C-9.845625 31.26875 -10.69125 33.5375 -11.5625 35.875 C-11.96770874 36.94403564 -11.96770874 36.94403564 -12.38110352 38.03466797 C-12.97762603 39.67013582 -13.49098411 41.33521862 -14 43 C-13.10664203 45.35785318 -13.10664203 45.35785318 -9.9375 46.125 C-8.968125 46.41375 -7.99875 46.7025 -7 47 C-7 47.33 -7 47.66 -7 48 C-13.27 48 -19.54 48 -26 48 C-24 46 -24 46 -21.64941406 44.96533203 C-17.63693475 41.9888799 -16.45201968 38.10127158 -14.609375 33.5546875 C-14.0242514 32.16626144 -14.0242514 32.16626144 -13.42730713 30.74978638 C-12.18658412 27.79752055 -10.96778102 24.83679338 -9.75 21.875 C-8.51337332 18.90815128 -7.27239598 15.94316263 -6.02984619 12.97879028 C-5.25857894 11.13435675 -4.49166338 9.28809656 -3.72943115 7.43991089 C-3.38527161 6.60879791 -3.04111206 5.77768494 -2.68652344 4.92138672 C-2.38405701 4.18653046 -2.08159058 3.45167419 -1.7699585 2.69454956 C-1 1 -1 1 0 0 Z M-2 10 C-4.97 17.92 -4.97 17.92 -8 26 C-3.38 26 1.24 26 6 26 C5.16583712 21.82918558 4.21232487 18.96469139 2.4375 15.1875 C1.98246094 14.21167969 1.52742188 13.23585937 1.05859375 12.23046875 C0.70925781 11.49441406 0.35992187 10.75835937 0 10 C-0.66 10 -1.32 10 -2 10 Z M50 10 C47.03 17.92 47.03 17.92 44 26 C48.62 26 53.24 26 58 26 C57.10613763 21.53068814 56.12759489 19.05511438 53.9375 15.1875 C53.38964844 14.21167969 52.84179688 13.23585937 52.27734375 12.23046875 C51.85582031 11.49441406 51.43429688 10.75835937 51 10 C50.67 10 50.34 10 50 10 Z " fill="#3F72B4" transform="translate(193,202)"/>
<path d="M0 0 C1.17955308 -0.00259449 1.17955308 -0.00259449 2.38293552 -0.00524139 C5.0390024 -0.00963766 7.69500633 -0.00662234 10.35107422 -0.00341797 C12.27822386 -0.00443778 14.20537336 -0.00577962 16.13252258 -0.00741577 C21.44039348 -0.01015936 26.74823584 -0.00556227 32.05610275 0.00082397 C35.40126381 0.00438974 38.74642053 0.00601462 42.09158325 0.00708008 C105.82266913 0.03206251 169.55229596 0.59644753 233.28076172 1.12939453 C233.28076172 1.45939453 233.28076172 1.78939453 233.28076172 2.12939453 C153.75076172 2.45939453 74.22076172 2.78939453 -7.71923828 3.12939453 C-8.04923828 4.11939453 -8.37923828 5.10939453 -8.71923828 6.12939453 C-10.03923828 5.79939453 -11.35923828 5.46939453 -12.71923828 5.12939453 C-12.94611328 5.68626953 -13.17298828 6.24314453 -13.40673828 6.81689453 C-14.71923828 9.12939453 -14.71923828 9.12939453 -19.71923828 14.12939453 C67.40076172 14.12939453 154.52076172 14.12939453 244.28076172 14.12939453 C244.61076172 13.46939453 244.94076172 12.80939453 245.28076172 12.12939453 C245.61076172 13.11939453 245.94076172 14.10939453 246.28076172 15.12939453 C157.18076172 15.12939453 68.08076172 15.12939453 -23.71923828 15.12939453 C-21.75585766 11.20263329 -19.90984123 9.02114259 -16.84423828 5.94189453 C-15.98056641 5.06146484 -15.11689453 4.18103516 -14.22705078 3.27392578 C-9.88013308 -0.44329823 -5.52292041 -0.01528642 0 0 Z " fill="#7EACE6" transform="translate(114.71923828125,50.87060546875)"/>
<path d="M0 0 C102.96 0 205.92 0 312 0 C311.34 1.65 310.68 3.3 310 5 C309.34 5 308.68 5 308 5 C308 4.01 308 3.02 308 2 C209 2 110 2 8 2 C8 2.66 8 3.32 8 4 C7.01 4.33 6.02 4.66 5 5 C3.35 3.35 1.7 1.7 0 0 Z " fill="#628CC1" transform="translate(70,272)"/>
<path d="M0 0 C0.73896515 0.00115814 1.4779303 0.00231628 2.23928833 0.00350952 C17.99664133 0.05217284 33.24262969 1.43898689 48.3125 6.3125 C48.3125 6.6425 48.3125 6.9725 48.3125 7.3125 C36.23876327 7.48935958 24.16493108 7.6553226 12.09085369 7.80727577 C6.48471337 7.87817405 0.87867635 7.95286169 -4.72729492 8.03613281 C-10.13475472 8.1163171 -15.5422602 8.18664757 -20.94994164 8.25007248 C-23.01570567 8.27604744 -25.08142778 8.30560636 -27.147089 8.33876419 C-30.0346361 8.38450981 -32.92206797 8.41764718 -35.80981445 8.44775391 C-36.66864731 8.4642952 -37.52748016 8.48083649 -38.41233826 8.49787903 C-44.34534352 8.54060432 -44.34534352 8.54060432 -47.6875 6.3125 C-45.33597426 5.67595033 -42.98192909 5.05349073 -40.625 4.4375 C-39.98755859 4.26347656 -39.35011719 4.08945313 -38.69335938 3.91015625 C-25.93930401 0.61485008 -13.09391822 -0.06402217 0 0 Z " fill="#4A89EB" transform="translate(225.6875,3.6875)"/>
<path d="M0 0 C1.70349609 0.00966797 1.70349609 0.00966797 3.44140625 0.01953125 C6.4375 0.1875 6.4375 0.1875 9.4375 1.1875 C10.91416292 4.67779418 10.50914685 8.46186386 10.4375 12.1875 C9.7775 12.1875 9.1175 12.1875 8.4375 12.1875 C8.17195313 11.62160156 7.90640625 11.05570313 7.6328125 10.47265625 C7.27960938 9.73917969 6.92640625 9.00570312 6.5625 8.25 C6.21445312 7.51910156 5.86640625 6.78820312 5.5078125 6.03515625 C4.5690023 4.02417541 4.5690023 4.02417541 2.4375 3.1875 C-2.98041616 2.55903726 -2.98041616 2.55903726 -7.625 4.75 C-9.03789287 8.42352147 -8.7291327 10.4283502 -7.5625 14.1875 C-4.34689098 18.02149537 -0.05517848 20.52738642 4.125 23.1875 C7.98258534 25.73944107 10.55637786 27.82671686 12.4375 32.1875 C12.7485424 36.80402404 12.05749063 40.18268761 9.625 44.125 C5.57469203 47.9438618 2.54012266 48.46311906 -3 48.4375 C-4.11246094 48.44265625 -5.22492188 48.4478125 -6.37109375 48.453125 C-9.54075737 48.18930967 -11.74529332 47.63956297 -14.5625 46.1875 C-15.88479189 43.54291621 -15.65927194 41.50988699 -15.625 38.5625 C-15.61597656 37.55960938 -15.60695313 36.55671875 -15.59765625 35.5234375 C-15.58605469 34.75257813 -15.57445312 33.98171875 -15.5625 33.1875 C-13.01956738 34.45896631 -12.82272999 35.50119597 -11.6875 38.0625 C-9.54265049 42.47610976 -9.54265049 42.47610976 -5.5625 45.1875 C-1.94188067 45.5754235 0.52307799 45.58609421 3.875 44.125 C5.72608161 42.16307619 5.72608161 42.16307619 5.9375 38.875 C5.36682352 34.66626094 4.47716574 32.093717 1.4375 29.1875 C-1.2989393 27.33514109 -4.10396721 25.62384093 -6.921875 23.8984375 C-10.52089179 21.56653017 -12.39928059 19.91718864 -14.5625 16.1875 C-15.46466613 11.5700497 -15.23306414 8.3130898 -12.8125 4.25 C-8.63780015 0.4231918 -5.6493678 -0.07069744 0 0 Z " fill="#658BBF" transform="translate(292.5625,202.8125)"/>
<path d="M0 0 C0 0.99 0 1.98 0 3 C64.68 3 129.36 3 196 3 C196 2.01 196 1.02 196 0 C199.37462715 0.54723683 201.08235 1.0549 204 3 C204 3.66 204 4.32 204 5 C134.7 5 65.4 5 -6 5 C-4.87312259 1.61936778 -3.78825335 0 0 0 Z " fill="#A8C3EE" transform="translate(127,34)"/>
<path d="M0 0 C20.77498673 -0.11677142 41.5499194 -0.20495785 62.32516766 -0.25906086 C71.9713659 -0.28484891 81.61736031 -0.32001091 91.26342773 -0.37719727 C99.67038143 -0.42701384 108.07718751 -0.45928664 116.4842847 -0.47044247 C120.93637635 -0.47696422 125.38804569 -0.49230441 129.84000206 -0.52865028 C134.03023559 -0.56258236 138.21987277 -0.57305874 142.41023064 -0.56553841 C143.94815563 -0.56691422 145.4861005 -0.57686384 147.02390671 -0.59602737 C149.12483928 -0.62092464 151.22352359 -0.61492087 153.32450867 -0.60127258 C154.49979472 -0.60588155 155.67508078 -0.61049051 156.88598156 -0.61523914 C161.07553646 0.21249461 162.37185639 1.66249692 165 5 C166.98 8.96 166.98 8.96 169 13 C134.02 13 99.04 13 63 13 C66.93290478 10.37806348 70.31115678 10.69263834 74.87768555 10.68115234 C75.78520569 10.67110672 76.69272583 10.6610611 77.62774658 10.65071106 C80.63073079 10.61979298 83.63362551 10.60281994 86.63671875 10.5859375 C88.71752192 10.56723279 90.79831745 10.54765991 92.87910461 10.5272522 C98.35844424 10.47585135 103.83780849 10.43626818 109.31726074 10.39910889 C114.90753304 10.35911907 120.49770225 10.30800385 126.08789062 10.2578125 C137.05852142 10.16095905 148.02921031 10.07658442 159 10 C158.67 7.36 158.34 4.72 158 2 C79.79 1.505 79.79 1.505 0 1 C0 0.67 0 0.34 0 0 Z " fill="#437ED7" transform="translate(212,80)"/>
<path d="M0 0 C0.87884354 -0.00014603 1.75768707 -0.00029205 2.66316223 -0.0004425 C5.54703299 0.00025012 8.43083789 0.00801191 11.31469727 0.01586914 C13.32251449 0.01773563 15.33033218 0.01915844 17.33815002 0.02015686 C22.60705842 0.02396384 27.87593898 0.03377851 33.14483643 0.04486084 C38.52762475 0.05511416 43.9104176 0.05966287 49.29321289 0.06469727 C59.84335529 0.07540248 70.39347708 0.09245696 80.94360352 0.11352539 C81.61955667 1.52578465 82.28400411 2.94355444 82.94360352 4.36352539 C83.31485352 5.15243164 83.68610352 5.94133789 84.06860352 6.75415039 C84.94360352 9.11352539 84.94360352 9.11352539 84.94360352 13.11352539 C54.25360352 13.11352539 23.56360352 13.11352539 -8.05639648 13.11352539 C-8.05639648 12.78352539 -8.05639648 12.45352539 -8.05639648 12.11352539 C0.25530852 11.98156578 8.56703493 11.85108208 16.87879086 11.72237396 C20.74016879 11.66253619 24.60153812 11.60223003 28.46289062 11.54077148 C32.20413543 11.48124322 35.94539905 11.42305219 39.68667793 11.3657074 C41.09887976 11.34384225 42.51107477 11.32153184 43.92326164 11.29872131 C54.26431261 11.13211824 64.60138742 11.0882984 74.94360352 11.11352539 C74.94360352 10.45352539 74.94360352 9.79352539 74.94360352 9.11352539 C73.62360352 8.78352539 72.30360352 8.45352539 70.94360352 8.11352539 C70.94360352 6.13352539 70.94360352 4.15352539 70.94360352 2.11352539 C42.23360352 2.11352539 13.52360352 2.11352539 -16.05639648 2.11352539 C-16.05639648 1.78352539 -16.05639648 1.45352539 -16.05639648 1.11352539 C-10.65598257 0.2062617 -5.47007346 -0.02408921 0 0 Z " fill="#447BDE" transform="translate(308.056396484375,106.886474609375)"/>
<path d="M0 0 C1.64601992 -0.00402141 3.29203412 -0.01195622 4.9380188 -0.02345276 C9.35974124 -0.04292664 13.77936325 -0.00694863 18.20080376 0.04093337 C22.84725074 0.0826704 27.49365958 0.0758631 32.14025879 0.07551575 C39.93077512 0.081991 47.72049437 0.12278331 55.51074219 0.18652344 C64.50595202 0.25989572 73.50038079 0.28783876 82.49587202 0.28967208 C92.10296301 0.29192259 101.70976536 0.32466388 111.31675148 0.36768556 C114.07510038 0.37815493 116.83341639 0.38322646 119.59178162 0.38719749 C123.92597321 0.39512404 128.25956618 0.42371465 132.59353256 0.46813393 C134.18054404 0.48137764 135.76762778 0.48795026 137.35469437 0.48725891 C152.12890915 0.48914931 152.12890915 0.48914931 157.98632812 5.08520508 C156.99632812 5.41520508 156.00632812 5.74520508 154.98632812 6.08520508 C154.98632812 6.74520508 154.98632812 7.40520508 154.98632812 8.08520508 C151.11132812 6.21020508 151.11132812 6.21020508 149.98632812 5.08520508 C145.28743586 4.25084043 140.76050726 3.96125304 135.99440002 3.96495056 C134.99312534 3.96366892 134.99312534 3.96366892 133.97162288 3.9623614 C131.75457273 3.96072583 129.53759972 3.96619617 127.32055664 3.97167969 C125.72348533 3.971962 124.12641389 3.97180296 122.52934265 3.97123718 C118.20756951 3.97095093 113.88582426 3.97681981 109.56405759 3.98381114 C105.0423759 3.99007336 100.52069353 3.99065075 95.99900818 3.99183655 C87.44273745 3.99494141 78.88647953 4.0031434 70.33021444 4.01318604 C60.5865875 4.02437343 50.84295993 4.02986424 41.09932816 4.03488147 C21.06165434 4.04532672 1.02399204 4.06290979 -19.01367188 4.08520508 C-19.01367188 4.74520508 -19.01367188 5.40520508 -19.01367188 6.08520508 C-24.63867188 9.08520508 -24.63867188 9.08520508 -28.01367188 9.08520508 C-28.01367188 9.74520508 -28.01367188 10.40520508 -28.01367188 11.08520508 C-29.33367187 10.75520508 -30.65367187 10.42520508 -32.01367188 10.08520508 C-21.21749094 2.31695702 -13.20002668 -0.2359174 0 0 Z " fill="#8CB4F0" transform="translate(159.013671875,22.914794921875)"/>
<path d="M0 0 C1.4410167 -0.00128164 1.4410167 -0.00128164 2.91114485 -0.00258917 C6.12629863 -0.00423469 9.34140011 0.00126225 12.55654907 0.00672913 C14.86282347 0.00701122 17.16909797 0.00685282 19.47537231 0.00628662 C25.73515581 0.00599953 31.99492018 0.01188209 38.25469923 0.01886058 C44.79701611 0.02510872 51.33933343 0.02569907 57.88165283 0.02688599 C68.86215548 0.02947511 79.84265141 0.03588935 90.82315063 0.04481506 C102.13174403 0.0539979 113.44033551 0.06107447 124.74893188 0.06532288 C125.79500282 0.06571696 125.79500282 0.06571696 126.8622065 0.06611901 C130.36085536 0.06742407 133.85950423 0.06868777 137.3581531 0.06993091 C166.37041596 0.08029302 195.38267188 0.09797665 224.39492798 0.12025452 C225.72824893 2.78689642 225.06594831 4.28705755 224.39492798 7.12025452 C224.06492798 5.80025452 223.73492798 4.48025452 223.39492798 3.12025452 C217.08036456 2.32012046 210.9417067 1.97867178 204.58094788 2 C203.63404101 1.99914558 202.68713414 1.99829115 201.71153313 1.99741083 C198.56097514 1.99577297 195.41047124 2.00124951 192.25991821 2.00672913 C189.99260967 2.00701139 187.72530104 2.0068525 185.45799255 2.00628662 C179.31821741 2.00600018 173.17846188 2.01187225 167.03869128 2.01886058 C160.61650871 2.02511952 154.19432566 2.02569993 147.7721405 2.02688599 C136.99788002 2.02963912 126.22362809 2.03588176 115.44937134 2.04481506 C104.35529618 2.05400393 93.26122297 2.06107754 82.16714478 2.06532288 C81.4825003 2.0655856 80.79785583 2.06584832 80.09246456 2.06611901 C76.65756389 2.06742411 73.22266321 2.0686878 69.78776252 2.06993091 C41.32347941 2.08028579 12.85920408 2.09796328 -15.60507202 2.12025452 C-15.60507202 1.79025452 -15.60507202 1.46025452 -15.60507202 1.12025452 C-10.3609966 0.04401914 -5.32531407 -0.01737034 0 0 Z " fill="#44A1EA" transform="translate(173.60507202148438,134.87974548339844)"/>
<path d="M0 0 C0 2.83967231 -0.40267181 5.23735711 -1 8 C0.19520264 7.99777939 1.39040527 7.99555878 2.62182617 7.99327087 C18.08120941 7.96552489 33.54059568 7.94807001 49 7.9375 C50.86456785 7.93621597 50.86456785 7.93621597 52.76680374 7.93490601 C88.82676709 7.91299844 124.88022703 8.04928409 160.9375 8.5 C161.8947699 8.51195782 162.85203979 8.52391563 163.83831787 8.53623581 C175.22570879 8.67948282 186.61292758 8.83333998 198 9 C198 9.33 198 9.66 198 10 C171.69708128 10.17710553 145.39411226 10.34279129 119.09103584 10.49477577 C106.87884599 10.56560832 94.66670077 10.64021794 82.45458984 10.72363281 C71.8140415 10.79630364 61.17347728 10.86197596 50.53283393 10.91914403 C44.8955189 10.94967824 39.25827526 10.98378476 33.62103653 11.02626419 C28.32048271 11.06609616 23.01995883 11.09660571 17.71930695 11.11981392 C15.76893101 11.13002445 13.81856985 11.14370733 11.86824417 11.16103554 C9.21518349 11.18409971 6.56235341 11.19492294 3.90921021 11.20254517 C2.7389914 11.21712011 2.7389914 11.21712011 1.5451318 11.2319895 C-3.77175758 11.22824242 -3.77175758 11.22824242 -6 9 C-4.02 6.03 -2.04 3.06 0 0 Z " fill="#589AD1" transform="translate(77,83)"/>
<path d="M0 0 C5.94 0 11.88 0 18 0 C18 0.66 18 1.32 18 2 C16.35 2.66 14.7 3.32 13 4 C13 17.2 13 30.4 13 44 C14.65 44.66 16.3 45.32 18 46 C18 46.33 18 46.66 18 47 C12.06 47 6.12 47 0 47 C3 45 3 45 5 44 C5 30.8 5 17.6 5 4 C2.525 3.01 2.525 3.01 0 2 C0 1.34 0 0.68 0 0 Z " fill="#1650A1" transform="translate(147,203)"/>
<path d="M0 0 C1.32 0.66 2.64 1.32 4 2 C3.67 2.99 3.34 3.98 3 5 C1.68 4.67 0.36 4.34 -1 4 C-1.226875 4.556875 -1.45375 5.11375 -1.6875 5.6875 C-3 8 -3 8 -8 13 C79.12 13 166.24 13 256 13 C256.33 12.34 256.66 11.68 257 11 C257.33 11.99 257.66 12.98 258 14 C168.9 14 79.8 14 -12 14 C-9.99006295 9.98012591 -8.06153611 7.85483005 -4.875 4.75 C-3.96492188 3.85796875 -3.05484375 2.9659375 -2.1171875 2.046875 C-1.41851562 1.37140625 -0.71984375 0.6959375 0 0 Z " fill="#8FBEF4" transform="translate(103,52)"/>
<path d="M0 0 C3.05774473 2.60758789 4.43666576 5.61440185 6.14453125 9.21484375 C6.43680099 9.82582413 6.72907074 10.4368045 7.03019714 11.06629944 C7.9636243 13.02057762 8.88834125 14.97882437 9.8125 16.9375 C10.42191726 18.21969057 11.03193797 19.50159451 11.64257812 20.78320312 C11.94251678 21.41296051 12.24245544 22.0427179 12.55148315 22.69155884 C13.74538039 25.19430511 14.94393123 27.69481642 16.14215088 30.19549561 C16.97651861 31.95060639 17.79393861 33.7137426 18.61083984 35.47705078 C19.11437988 36.53778809 19.61791992 37.59852539 20.13671875 38.69140625 C20.57072998 39.62283447 21.00474121 40.5542627 21.4519043 41.51391602 C23.1829585 44.60098363 23.1829585 44.60098363 28 48 C22.06 48 16.12 48 10 48 C10.66 47.34 11.32 46.68 12 46 C12.99 46 13.98 46 15 46 C14.62746094 45.21496094 14.25492187 44.42992187 13.87109375 43.62109375 C9.17223199 33.18629174 9.17223199 33.18629174 11 27 C9.68 27 8.36 27 7 27 C-2.58320832 9.18474068 -2.58320832 9.18474068 0 0 Z " fill="#537EBA" transform="translate(245,202)"/>
<path d="M0 0 C2.17175481 3.25763222 2.46043998 4.22439213 2 8 C1.54367188 8.60457031 1.08734375 9.20914063 0.6171875 9.83203125 C-1.16393345 12.21976585 -2.1276927 14.47257398 -3.1875 17.25 C-3.785625 18.8175 -4.38375 20.385 -5 22 C-0.71 22.33 3.58 22.66 8 23 C8.33 22.34 8.66 21.68 9 21 C9 21.99 9 22.98 9 24 C10.32 24 11.64 24 13 24 C12.505 26.475 12.505 26.475 12 29 C11.34 27.68 10.68 26.36 10 25 C1.585 25.495 1.585 25.495 -7 26 C-7.845625 28.26875 -8.69125 30.5375 -9.5625 32.875 C-9.83263916 33.58769043 -10.10277832 34.30038086 -10.38110352 35.03466797 C-10.97762603 36.67013582 -11.49098411 38.33521862 -12 40 C-11.10664203 42.35785318 -11.10664203 42.35785318 -7.9375 43.125 C-6.968125 43.41375 -5.99875 43.7025 -5 44 C-5 44.33 -5 44.66 -5 45 C-16.55 45 -28.1 45 -40 45 C-39.34 44.34 -38.68 43.68 -38 43 C-37.01 43 -36.02 43 -35 43 C-35.33 41.02 -35.66 39.04 -36 37 C-35.01 36.505 -35.01 36.505 -34 36 C-32.64560332 38.70879335 -32.93498549 41.00933268 -33 44 C-30.52733235 43.65555119 -30.52733235 43.65555119 -28 43 C-27.67 42.34 -27.34 41.68 -27 41 C-26.278125 41.391875 -25.55625 41.78375 -24.8125 42.1875 C-22.04667965 43.28672034 -22.04667965 43.28672034 -19.5871582 42.1159668 C-15.82305713 39.03741022 -14.58236531 35.40129519 -12.79296875 30.95703125 C-12.23758171 29.63163582 -12.23758171 29.63163582 -11.67097473 28.27946472 C-10.49482862 25.46310288 -9.34099144 22.63820564 -8.1875 19.8125 C-7.39273094 17.89848377 -6.59652325 15.98506422 -5.79882812 14.07226562 C-3.84914046 9.38826401 -1.91940628 4.69648692 0 0 Z " fill="#809BC0" transform="translate(243,205)"/>
<path d="M0 0 C0.33 0.66 0.66 1.32 1 2 C1.66 2 2.32 2 3 2 C3 2.66 3 3.32 3 4 C2.34 4 1.68 4 1 4 C0.87753906 4.71542969 0.75507813 5.43085938 0.62890625 6.16796875 C-0.37130433 10.67202262 -2.23938673 14.74045176 -4 19 C0.29 19.33 4.58 19.66 9 20 C9.33 19.34 9.66 18.68 10 18 C10 18.99 10 19.98 10 21 C10.99 20.67 11.98 20.34 13 20 C13 21.98 13 23.96 13 26 C12.34 24.68 11.68 23.36 11 22 C2.585 22.495 2.585 22.495 -6 23 C-6.845625 25.26875 -7.69125 27.5375 -8.5625 29.875 C-8.96770874 30.94403564 -8.96770874 30.94403564 -9.38110352 32.03466797 C-9.97762603 33.67013582 -10.49098411 35.33521862 -11 37 C-10.10664203 39.35785318 -10.10664203 39.35785318 -6.9375 40.125 C-5.968125 40.41375 -4.99875 40.7025 -4 41 C-4 41.33 -4 41.66 -4 42 C-10.27 42 -16.54 42 -23 42 C-21 40 -21 40 -18.62426758 38.89916992 C-14.84275698 36.16250875 -13.74413551 32.85566929 -12.01171875 28.61328125 C-11.66365677 27.79627243 -11.31559479 26.97926361 -10.95698547 26.13749695 C-9.85231524 23.53514536 -8.76974 20.92424818 -7.6875 18.3125 C-6.94089333 16.54301143 -6.19286227 14.77412314 -5.44335938 13.00585938 C-3.61232553 8.67735617 -1.80104808 4.34106072 0 0 Z " fill="#7897C2" transform="translate(190,208)"/>
<path d="M0 0 C32.34 0 64.68 0 98 0 C99 3 99 3 99 12 C77.22 12 55.44 12 33 12 C33 11.67 33 11.34 33 11 C63.69 10.505 63.69 10.505 95 10 C95.33 7.36 95.66 4.72 96 2 C64.32 1.67 32.64 1.34 0 1 C0 0.67 0 0.34 0 0 Z " fill="#508BDB" transform="translate(306,162)"/>
<path d="M0 0 C0 0.66 0 1.32 0 2 C-1.32 1.67 -2.64 1.34 -4 1 C-4 1.66 -4 2.32 -4 3 C19.43 3 42.86 3 67 3 C67 2.34 67 1.68 67 1 C66.01 0.505 66.01 0.505 65 0 C70.23880078 0.55145271 74.97350697 1.42922093 80 3 C80 3.33 80 3.66 80 4 C67.92626327 4.17685958 55.85243108 4.3428226 43.77835369 4.49477577 C38.17221337 4.56567405 32.56617635 4.64036169 26.96020508 4.72363281 C21.55274528 4.8038171 16.1452398 4.87414757 10.73755836 4.93757248 C8.67179433 4.96354744 6.60607222 4.99310636 4.540411 5.02626419 C1.6528639 5.07200981 -1.23456797 5.10514718 -4.12231445 5.13525391 C-4.98114731 5.1517952 -5.83998016 5.16833649 -6.72483826 5.18537903 C-12.65784352 5.22810432 -12.65784352 5.22810432 -16 3 C-14.27318563 2.49193553 -12.54342021 1.99389533 -10.8125 1.5 C-9.84957031 1.2215625 -8.88664063 0.943125 -7.89453125 0.65625 C-5.14654124 0.03322392 -2.80401584 -0.12302812 0 0 Z " fill="#94B1E1" transform="translate(194,7)"/>
<path d="M0 0 C24.09 0 48.18 0 73 0 C74.33332095 2.6666419 73.67102033 4.16680303 73 7 C72.505 5.02 72.505 5.02 72 3 C64.5040175 1.98481495 57.1669923 1.88552033 49.609375 1.9375 C48.34659729 1.94128662 47.08381958 1.94507324 45.78277588 1.94897461 C41.77181394 1.96113186 37.76092578 1.97956798 33.75 2 C28.45312998 2.02687964 23.15629244 2.04656815 17.859375 2.0625 C16.64473572 2.07079834 15.43009644 2.07909668 14.1786499 2.08764648 C12.4809848 2.09260132 12.4809848 2.09260132 10.74902344 2.09765625 C9.75690857 2.10289307 8.7647937 2.10812988 7.74261475 2.11352539 C5.05832257 2.00241415 2.61385936 1.60306646 0 1 C0 0.67 0 0.34 0 0 Z " fill="#3B79E6" transform="translate(325,135)"/>
<path d="M0 0 C0 3 0 3 -1 8 C35.63 8 72.26 8 110 8 C110 8.33 110 8.66 110 9 C109.42462557 9.00423194 108.84925114 9.00846388 108.25644112 9.01282406 C94.26913541 9.11603947 80.2818815 9.2247261 66.29466438 9.33933926 C59.53060774 9.39466412 52.76654582 9.4481449 46.00244141 9.49731445 C39.47963467 9.5447351 32.95688074 9.597255 26.43413925 9.65294075 C23.94057426 9.6733844 21.44699445 9.69209409 18.95340347 9.70907402 C15.47164786 9.73307357 11.98999504 9.7631342 8.50830078 9.79467773 C6.94816254 9.80331093 6.94816254 9.80331093 5.35650635 9.81211853 C3.93880447 9.82680176 3.93880447 9.82680176 2.49246216 9.84178162 C1.66837923 9.84823417 0.8442963 9.85468672 -0.00475883 9.8613348 C-2.07363081 9.87676283 -2.07363081 9.87676283 -4 11 C-4.66 10.34 -5.32 9.68 -6 9 C-4.02 6.03 -2.04 3.06 0 0 Z " fill="#42A8F0" transform="translate(77,83)"/>
<path d="M0 0 C5.94 0 11.88 0 18 0 C18 0.66 18 1.32 18 2 C16.35 2.66 14.7 3.32 13 4 C12.67 17.2 12.34 30.4 12 44 C11.67 44 11.34 44 11 44 C10.67 31.46 10.34 18.92 10 6 C9.34 6 8.68 6 8 6 C7.67 18.54 7.34 31.08 7 44 C6.67 44 6.34 44 6 44 C5.67 30.8 5.34 17.6 5 4 C2.525 3.01 2.525 3.01 0 2 C0 1.34 0 0.68 0 0 Z " fill="#A2BCDF" transform="translate(147,203)"/>
<path d="M0 0 C1.70349609 0.00966797 1.70349609 0.00966797 3.44140625 0.01953125 C6.4375 0.1875 6.4375 0.1875 9.4375 1.1875 C10.91416292 4.67779418 10.50914685 8.46186386 10.4375 12.1875 C9.7775 12.1875 9.1175 12.1875 8.4375 12.1875 C8.17195313 11.62160156 7.90640625 11.05570313 7.6328125 10.47265625 C7.27960938 9.73917969 6.92640625 9.00570312 6.5625 8.25 C6.21445312 7.51910156 5.86640625 6.78820312 5.5078125 6.03515625 C4.5690023 4.02417541 4.5690023 4.02417541 2.4375 3.1875 C-2.98041616 2.55903726 -2.98041616 2.55903726 -7.625 4.75 C-8.98873502 8.29571105 -8.52223321 10.5405138 -7.5625 14.1875 C-5.63856449 17.0749873 -5.63856449 17.0749873 -3.5625 19.1875 C-5.9375 18.875 -5.9375 18.875 -8.5625 18.1875 C-10.9919516 14.5433226 -10.72429575 12.47508728 -10.5625 8.1875 C-11.5525 8.6825 -11.5525 8.6825 -12.5625 9.1875 C-12.96979228 11.50906597 -13.30688677 13.8443787 -13.5625 16.1875 C-13.8925 16.1875 -14.2225 16.1875 -14.5625 16.1875 C-15.18626238 8.2345297 -15.18626238 8.2345297 -12.8125 4.25 C-8.63780015 0.4231918 -5.6493678 -0.07069744 0 0 Z " fill="#88A0C5" transform="translate(292.5625,202.8125)"/>
<path d="M0 0 C3.2558187 4.00716147 5.16837007 8.4554537 7.3046875 13.125 C9.10769374 16.57176769 9.10769374 16.57176769 14 20 C8.06 20 2.12 20 -4 20 C-3.34 19.34 -2.68 18.68 -2 18 C-1.01 18 -0.02 18 1 18 C0.6390625 17.15695313 0.278125 16.31390625 -0.09375 15.4453125 C-0.78984375 13.80175781 -0.78984375 13.80175781 -1.5 12.125 C-1.9640625 11.03445312 -2.428125 9.94390625 -2.90625 8.8203125 C-4 6 -4 6 -4 4 C-3.01 4 -2.02 4 -1 4 C-0.67 5.32 -0.34 6.64 0 8 C0 5.36 0 2.72 0 0 Z " fill="#2A63AE" transform="translate(259,230)"/>
<path d="M0 0 C2.33204609 2.13041393 3.70885681 4.0857674 5.04296875 6.94140625 C5.39423828 7.68970703 5.74550781 8.43800781 6.10742188 9.20898438 C6.46384766 9.98564453 6.82027344 10.76230469 7.1875 11.5625 C7.55552734 12.34302734 7.92355469 13.12355469 8.30273438 13.92773438 C11 19.7276061 11 19.7276061 11 22 C9.35 21.67 7.7 21.34 6 21 C5.67 21.66 5.34 22.32 5 23 C4.15415002 21.44424022 3.32381601 19.8800388 2.5 18.3125 C2.0359375 17.44238281 1.571875 16.57226562 1.09375 15.67578125 C-0.04818792 12.88211171 -0.21504208 10.98370887 0 8 C-0.66 8 -1.32 8 -2 8 C-1.125 1.125 -1.125 1.125 0 0 Z " fill="#527DB9" transform="translate(193,202)"/>
<path d="M0 0 C0.66 0 1.32 0 2 0 C2.144375 1.093125 2.28875 2.18625 2.4375 3.3125 C2.88288104 6.93122987 2.88288104 6.93122987 4 10 C5.0725 10.0825 6.145 10.165 7.25 10.25 C11.32457642 11.06491528 12.56432091 11.72120123 15 15 C15.37245439 16.32293863 15.7126071 17.65601555 16 19 C9.65607424 18.28043435 5.15187147 16.4956874 0.46875 12.08203125 C-1.70735206 8.99729082 -1.67185535 6.49775866 -1.37890625 2.8203125 C-1 1 -1 1 0 0 Z " fill="#537EB9" transform="translate(280,211)"/>
<path d="M0 0 C1.45792884 -0.05399736 2.91642712 -0.09279177 4.375 -0.125 C5.18710937 -0.14820312 5.99921875 -0.17140625 6.8359375 -0.1953125 C9 0 9 0 11 2 C11.56520003 4.65537372 11.73788198 7.29144713 12 10 C8.7 10 5.4 10 2 10 C2.66 9.67 3.32 9.34 4 9 C4 8.34 4 7.68 4 7 C2.68 6.67 1.36 6.34 0 6 C0 4.02 0 2.04 0 0 Z " fill="#326CF3" transform="translate(379,109)"/>
<path d="M0 0 C2.54293262 1.27146631 2.73977001 2.31369597 3.875 4.875 C6.01984951 9.28860976 6.01984951 9.28860976 10 12 C15.02638169 12.54833255 17.90914193 11.9751695 22 9 C22.33 10.32 22.66 11.64 23 13 C19.49308963 15.16073695 16.63838074 15.268848 12.5625 15.25 C11.45003906 15.25515625 10.33757812 15.2603125 9.19140625 15.265625 C6.02174263 15.00180967 3.81720668 14.45206297 1 13 C-0.32229189 10.35541621 -0.09677194 8.32238699 -0.0625 5.375 C-0.05347656 4.37210938 -0.04445313 3.36921875 -0.03515625 2.3359375 C-0.02355469 1.56507813 -0.01195312 0.79421875 0 0 Z " fill="#718DB5" transform="translate(277,236)"/>
<path d="M0 0 C22.44 0 44.88 0 68 0 C68 0.33 68 0.66 68 1 C45.89 1 23.78 1 1 1 C1 3.97 1 6.94 1 10 C0.67 10.66 0.34 11.32 0 12 C-1.32 12 -2.64 12 -4 12 C-3.52309796 10.37433394 -3.04340334 8.74948689 -2.5625 7.125 C-2.29566406 6.22007813 -2.02882812 5.31515625 -1.75390625 4.3828125 C-1 2 -1 2 0 0 Z " fill="#4C98DA" transform="translate(63,107)"/>
<path d="M0 0 C2 2 2 2 2.125 5.125 C2.08375 6.07375 2.0425 7.0225 2 8 C4.47266765 7.65555119 4.47266765 7.65555119 7 7 C7.33 6.34 7.66 5.68 8 5 C8.66 5.4125 9.32 5.825 10 6.25 C14.06524589 7.26631147 15.88085353 5.92418158 19.42578125 3.9453125 C19.94527344 3.63335937 20.46476562 3.32140625 21 3 C21 4.32 21 5.64 21 7 C23.97 7.33 26.94 7.66 30 8 C30 8.33 30 8.66 30 9 C18.45 9 6.9 9 -5 9 C-4.34 8.34 -3.68 7.68 -3 7 C-2.01 7 -1.02 7 0 7 C-0.185625 6.030625 -0.37125 5.06125 -0.5625 4.0625 C-0.706875 3.051875 -0.85125 2.04125 -1 1 C-0.67 0.67 -0.34 0.34 0 0 Z " fill="#6F8FB9" transform="translate(208,241)"/>
<path d="M0 0 C1.32 0 2.64 0 4 0 C4 0.66 4 1.32 4 2 C23.305 2.495 23.305 2.495 43 3 C42.67 3.66 42.34 4.32 42 5 C37.14366965 5.07453636 32.28767732 5.12878329 27.4309082 5.16479492 C25.78110956 5.17981806 24.13135042 5.2002426 22.48168945 5.22631836 C20.10097464 5.26298899 17.72079092 5.27979103 15.33984375 5.29296875 C14.61039047 5.30845261 13.88093719 5.32393646 13.12937927 5.33988953 C8.04232991 5.34153576 4.55899214 4.26772587 0 2 C0 1.34 0 0.68 0 0 Z " fill="#557FB7" transform="translate(202,358)"/>
<path d="M0 0 C4.69349034 1.84136935 5.87645022 4.79331242 7.9609375 9.1796875 C9.51795173 13.40586898 9.89519607 17.52201376 10 22 C9.34 22.33 8.68 22.66 8 23 C8 21.35 8 19.7 8 18 C7.01 18 6.02 18 5 18 C5.33 16.35 5.66 14.7 6 13 C4.68 13 3.36 13 2 13 C2 10.69 2 8.38 2 6 C1.34 6 0.68 6 0 6 C0 4.02 0 2.04 0 0 Z " fill="#2A61AE" transform="translate(250,216)"/>
<path d="M0 0 C1.32 0 2.64 0 4 0 C5 3 5 3 5 11 C-16.45 11 -37.9 11 -60 11 C-60 10.67 -60 10.34 -60 10 C-29.31 9.505 -29.31 9.505 2 9 C2.33 6.36 2.66 3.72 3 1 C2.01 0.67 1.02 0.34 0 0 Z " fill="#427FDC" transform="translate(399,163)"/>
<path d="M0 0 C13.2 0 26.4 0 40 0 C40 0.33 40 0.66 40 1 C38.92516357 1.02505615 37.85032715 1.0501123 36.74291992 1.07592773 C32.75646978 1.17007495 28.77019091 1.27027785 24.78393555 1.37231445 C23.05839035 1.41563562 21.33280307 1.45731273 19.60717773 1.49731445 C17.12731236 1.55508526 14.64765828 1.61876003 12.16796875 1.68359375 C11.39599655 1.70030624 10.62402435 1.71701874 9.82865906 1.73423767 C6.64817067 1.82227895 4.03764416 1.98745195 1 3 C1.515625 3.391875 2.03125 3.78375 2.5625 4.1875 C3.036875 4.785625 3.51125 5.38375 4 6 C3.6875 8.6875 3.6875 8.6875 3 11 C1.02 11 -0.96 11 -3 11 C-2.69078116 9.54096742 -2.37751201 8.08279278 -2.0625 6.625 C-1.88847656 5.81289062 -1.71445312 5.00078125 -1.53515625 4.1640625 C-1 2 -1 2 0 0 Z " fill="#3687F4" transform="translate(55,136)"/>
<path d="M0 0 C1.09570312 0.00902344 2.19140625 0.01804687 3.3203125 0.02734375 C4.16335937 0.03894531 5.00640625 0.05054688 5.875 0.0625 C5.875 0.7225 5.875 1.3825 5.875 2.0625 C11.155 2.0625 16.435 2.0625 21.875 2.0625 C21.875 2.7225 21.875 3.3825 21.875 4.0625 C17.92407941 4.13659401 13.97342706 4.19107406 10.02197266 4.22729492 C8.01580626 4.24982251 6.00983474 4.2879357 4.00390625 4.32617188 C2.74707031 4.33583984 1.49023438 4.34550781 0.1953125 4.35546875 C-1.54854736 4.37903442 -1.54854736 4.37903442 -3.32763672 4.40307617 C-4.2507666 4.29068604 -5.17389648 4.1782959 -6.125 4.0625 C-6.785 3.0725 -7.445 2.0825 -8.125 1.0625 C-5.36047967 -0.31976016 -3.0788637 -0.03275387 0 0 Z " fill="#3479F1" transform="translate(234.125,4.9375)"/>
<path d="M0 0 C13.53 0 27.06 0 41 0 C44.375 6.75 44.375 6.75 43 11 C42.01 10.67 41.02 10.34 40 10 C39.505 6.04 39.505 6.04 39 2 C19.695 1.505 19.695 1.505 0 1 C0 0.67 0 0.34 0 0 Z " fill="#3B6ADE" transform="translate(331,80)"/>
<path d="M0 0 C0.66 0 1.32 0 2 0 C2 0.99 2 1.98 2 3 C21.8 3 41.6 3 62 3 C62 3.33 62 3.66 62 4 C40.88 4 19.76 4 -2 4 C-1.34 2.68 -0.68 1.36 0 0 Z " fill="#4A98E0" transform="translate(125,34)"/>
<path d="M0 0 C1.77140283 0.04022598 3.54289473 0.07671051 5.31445312 0.109375 C9.60771314 0.19654727 13.8965939 0.33401985 18.1875 0.5 C18.1875 0.83 18.1875 1.16 18.1875 1.5 C-0.6225 1.995 -0.6225 1.995 -19.8125 2.5 C-19.8125 3.16 -19.8125 3.82 -19.8125 4.5 C-25.4375 7.5 -25.4375 7.5 -28.8125 7.5 C-28.8125 8.16 -28.8125 8.82 -28.8125 9.5 C-30.1325 9.17 -31.4525 8.84 -32.8125 8.5 C-22.12131529 -0.12588365 -13.32725323 -0.53133572 0 0 Z " fill="#4497E3" transform="translate(159.8125,24.5)"/>
<path d="M0 0 C2.9375 0.375 2.9375 0.375 6 1 C7.24270671 3.48541343 6.95365685 4.76415379 6.625 7.5 C6.53476562 8.2940625 6.44453125 9.088125 6.3515625 9.90625 C6 12 6 12 5 14 C4.01 14 3.02 14 2 14 C2 10.37 2 6.74 2 3 C1.34 3 0.68 3 0 3 C0 2.01 0 1.02 0 0 Z " fill="#4574B2" transform="translate(298,232)"/>
<path d="M0 0 C4.32683135 3.70871258 5.15589851 6.31179702 8 12 C-4.87 11.505 -4.87 11.505 -18 11 C-18 10.67 -18 10.34 -18 10 C-11.73 9.67 -5.46 9.34 1 9 C0.67 6.03 0.34 3.06 0 0 Z " fill="#4E78E5" transform="translate(373,81)"/>
<path d="M0 0 C0.99 0 1.98 0 3 0 C3 1.32 3 2.64 3 4 C3.763125 4.103125 4.52625 4.20625 5.3125 4.3125 C8.20604856 5.0527101 9.16791435 5.70989294 11 8 C11.33 8.66 11.66 9.32 12 10 C7.71 10 3.42 10 -1 10 C-0.67 8.02 -0.34 6.04 0 4 C0 2.68 0 1.36 0 0 Z " fill="#3665E7" transform="translate(347,55)"/>
<path d="M0 0 C0 0.66 0 1.32 0 2 C2.64 2.33 5.28 2.66 8 3 C8 3.33 8 3.66 8 4 C4.72933434 4.08706892 1.45896635 4.14041241 -1.8125 4.1875 C-2.74126953 4.21263672 -3.67003906 4.23777344 -4.62695312 4.26367188 C-5.9659668 4.27817383 -5.9659668 4.27817383 -7.33203125 4.29296875 C-8.15421143 4.3086792 -8.9763916 4.32438965 -9.82348633 4.34057617 C-12.47502434 3.92566921 -13.33263592 3.04470249 -15 1 C-9.94997778 -0.03590199 -5.12583611 -0.10251672 0 0 Z " fill="#5999F2" transform="translate(209,5)"/>
<path d="M0 0 C0.99 0 1.98 0 3 0 C3.20625 0.61875 3.4125 1.2375 3.625 1.875 C5.54775888 4.84653645 7.66594527 5.13024659 11 6 C11 6.33 11 6.66 11 7 C4.73 7 -1.54 7 -8 7 C-6 5 -6 5 -3.4375 3.5 C-0.89593129 2.23133163 -0.89593129 2.23133163 0 0 Z " fill="#829CC0" transform="translate(175,243)"/>
<path d="M0 0 C3.12433472 1.21501906 4.70730005 2.41927582 6.22265625 5.42578125 C7.21212246 7.93313828 8.14190558 10.44489203 9 13 C7.02 13 5.04 13 3 13 C2.34 10.69 1.68 8.38 1 6 C0.67 6 0.34 6 0 6 C0 4.02 0 2.04 0 0 Z " fill="#1E59AC" transform="translate(207,236)"/>
<path d="M0 0 C0.33 0.66 0.66 1.32 1 2 C1.66 2 2.32 2 3 2 C3 2.66 3 3.32 3 4 C2.34 4 1.68 4 1 4 C0.87753906 4.71542969 0.75507813 5.43085938 0.62890625 6.16796875 C-0.01135375 9.05112713 -0.93551556 11.58592473 -2.0625 14.3125 C-2.42472656 15.19550781 -2.78695312 16.07851562 -3.16015625 16.98828125 C-3.57587891 17.98408203 -3.57587891 17.98408203 -4 19 C-4.99 18.67 -5.98 18.34 -7 18 C-5.06375702 11.79522136 -2.74390859 5.89174281 0 0 Z " fill="#85A0C2" transform="translate(190,208)"/>
<path d="M0 0 C1.32 0.66 2.64 1.32 4 2 C3.67 2.99 3.34 3.98 3 5 C1.68 4.67 0.36 4.34 -1 4 C-1.226875 4.556875 -1.45375 5.11375 -1.6875 5.6875 C-3.37550036 8.66159588 -5.46676517 10.72008865 -8 13 C-8.66 13 -9.32 13 -10 13 C-9.48223379 8.89552608 -7.35372556 7.04300477 -4.4375 4.25 C-3.61121094 3.45078125 -2.78492187 2.6515625 -1.93359375 1.828125 C-1.29550781 1.22484375 -0.65742187 0.6215625 0 0 Z " fill="#73BEEE" transform="translate(103,52)"/>
<path d="M0 0 C0 0.66 0 1.32 0 2 C-1.32 1.67 -2.64 1.34 -4 1 C-4 1.66 -4 2.32 -4 3 C-1.03 3 1.94 3 5 3 C5 3.33 5 3.66 5 4 C2.06294869 4.22155127 -0.87380363 4.42774197 -3.8125 4.625 C-4.64587891 4.68945312 -5.47925781 4.75390625 -6.33789062 4.8203125 C-7.54155273 4.89765625 -7.54155273 4.89765625 -8.76953125 4.9765625 C-9.87711792 5.05511475 -9.87711792 5.05511475 -11.00708008 5.13525391 C-13 5 -13 5 -16 3 C-14.27318563 2.49193553 -12.54342021 1.99389533 -10.8125 1.5 C-9.84957031 1.2215625 -8.88664063 0.943125 -7.89453125 0.65625 C-5.14654124 0.03322392 -2.80401584 -0.12302812 0 0 Z " fill="#A6C1E7" transform="translate(194,7)"/>
<path d="M0 0 C2.50155273 1.25077637 2.92212548 2.35027305 4.1875 4.8125 C4.55230469 5.49957031 4.91710937 6.18664062 5.29296875 6.89453125 C6.12087895 9.35996549 5.85276722 10.58292094 5 13 C3.68 13 2.36 13 1 13 C-0.32229189 10.35541621 -0.09677194 8.32238699 -0.0625 5.375 C-0.05347656 4.37210938 -0.04445313 3.36921875 -0.03515625 2.3359375 C-0.02355469 1.56507813 -0.01195312 0.79421875 0 0 Z " fill="#688BBE" transform="translate(277,236)"/>
<path d="M0 0 C2.17175481 3.25763222 2.46043998 4.22439213 2 8 C0.625 10 0.625 10 -1 12 C-1.71162443 13.64797236 -2.39031953 15.31165408 -3 17 C-3.99 16.67 -4.98 16.34 -6 16 C-4.25192871 10.53262809 -2.34205919 5.24175152 0 0 Z " fill="#8EA7C9" transform="translate(243,205)"/>
<path d="M0 0 C3.82097239 0.53069061 6.06171403 1.49701566 9 4 C9 3.34 9 2.68 9 2 C9.99 2 10.98 2 12 2 C12.66 3.32 13.32 4.64 14 6 C11 6 11 6 8 5 C8 5.66 8 6.32 8 7 C6.35 7 4.7 7 3 7 C2.814375 5.824375 2.814375 5.824375 2.625 4.625 C2.20882007 1.85942178 2.20882007 1.85942178 0 0 Z " fill="#3367F2" transform="translate(305,27)"/>
<path d="M0 0 C9.56470344 -0.29032827 18.57182803 0.53948097 28 2 C28 2.33 28 2.66 28 3 C22.06 3 16.12 3 10 3 C10 2.34 10 1.68 10 1 C6.7 1 3.4 1 0 1 C0 0.67 0 0.34 0 0 Z " fill="#90B0EB" transform="translate(230,4)"/>
<path d="M0 0 C0.66 0 1.32 0 2 0 C2 1.98 2 3.96 2 6 C3.65 6 5.3 6 7 6 C6.67 4.68 6.34 3.36 6 2 C9.465 3.98 9.465 3.98 13 6 C13 6.33 13 6.66 13 7 C7.06 7 1.12 7 -5 7 C-4.34 6.34 -3.68 5.68 -3 5 C-2.01 5 -1.02 5 0 5 C0 3.35 0 1.7 0 0 Z " fill="#7696BC" transform="translate(260,243)"/>
<path d="M0 0 C0.09796875 0.59167969 0.1959375 1.18335938 0.296875 1.79296875 C1.25769801 6.87042139 2.2985201 10.17513744 6 14 C3.625 13.6875 3.625 13.6875 1 13 C-1.4294516 9.3558226 -1.16179575 7.28758728 -1 3 C-1.99 3.495 -1.99 3.495 -3 4 C-3.40729228 6.32156597 -3.74438677 8.6568787 -4 11 C-4.33 11 -4.66 11 -5 11 C-5.08096803 9.54257537 -5.13917774 8.08387193 -5.1875 6.625 C-5.22230469 5.81289062 -5.25710938 5.00078125 -5.29296875 4.1640625 C-5.19628906 3.44992188 -5.09960938 2.73578125 -5 2 C-2 0 -2 0 0 0 Z " fill="#6B8EC0" transform="translate(283,208)"/>
<path d="M0 0 C2.475 0.495 2.475 0.495 5 1 C5 1.66 5 2.32 5 3 C-5.56 3 -16.12 3 -27 3 C-27 2.67 -27 2.34 -27 2 C-18.09 2 -9.18 2 0 2 C0 1.34 0 0.68 0 0 Z " fill="#3E76E0" transform="translate(256,7)"/>
<path d="M0 0 C2.31 0.33 4.62 0.66 7 1 C7.66 2.98 8.32 4.96 9 7 C5.625 6.6875 5.625 6.6875 2 6 C0 3 0 3 0 0 Z " fill="#2761AE" transform="translate(287,223)"/>
<path d="M0 0 C0.33 0.99 0.66 1.98 1 3 C3.00016466 4.20882096 3.00016466 4.20882096 5 5 C2.19966161 6.11346788 1.09856297 6.03510273 -1.796875 5.00390625 C-2.77140625 4.52824219 -3.7459375 4.05257813 -4.75 3.5625 C-5.73484375 3.08941406 -6.7196875 2.61632812 -7.734375 2.12890625 C-8.48203125 1.75636719 -9.2296875 1.38382812 -10 1 C-10 0.67 -10 0.34 -10 0 C-3.375 -1.125 -3.375 -1.125 0 0 Z " fill="#4775B5" transform="translate(154,343)"/>
<path d="M0 0 C0.66 0 1.32 0 2 0 C4.42857143 8.42857143 4.42857143 8.42857143 3 13 C2.67 13 2.34 13 2 13 C2 11.35 2 9.7 2 8 C1.01 8 0.02 8 -1 8 C-0.67 6.35 -0.34 4.7 0 3 C-0.66 2.67 -1.32 2.34 -2 2 C-1.34 1.34 -0.68 0.68 0 0 Z " fill="#205AAC" transform="translate(256,226)"/>
<path d="M0 0 C4.13621084 3.3810038 7.81316569 6.66590534 11 11 C10.01 11 9.02 11 8 11 C7.67 10.01 7.34 9.02 7 8 C5.35 7.67 3.7 7.34 2 7 C2 5.68 2 4.36 2 3 C0.68 2.67 -0.64 2.34 -2 2 C-1.34 1.34 -0.68 0.68 0 0 Z " fill="#728EE6" transform="translate(348,52)"/>
<path d="M0 0 C0 0.33 0 0.66 0 1 C-1.60875 1.12375 -1.60875 1.12375 -3.25 1.25 C-7.2738451 2.05476902 -8.48169253 2.87729874 -11 6 C-11 5.34 -11 4.68 -11 4 C-12.98 4.99 -12.98 4.99 -15 6 C-14.00456145 3.375662 -13.02807645 2.02394756 -10.875 0.1875 C-6.84258454 -1.47806291 -4.2575419 -0.793779 0 0 Z " fill="#A7B8D1" transform="translate(294,204)"/>
<path d="M0 0 C0.66 0 1.32 0 2 0 C2.66 3.63 3.32 7.26 4 11 C1.03 10.505 1.03 10.505 -2 10 C-1.34 6.7 -0.68 3.4 0 0 Z " fill="#6892EB" transform="translate(398,137)"/>
<path d="M0 0 C0.33 0.99 0.66 1.98 1 3 C2.32 3 3.64 3 5 3 C4.67 4.65 4.34 6.3 4 8 C3.75636719 7.03320312 3.75636719 7.03320312 3.5078125 6.046875 C2.04785597 3.5663746 2.04785597 3.5663746 -1.6953125 3.390625 C-3.17112237 3.32414708 -4.64796017 3.27806121 -6.125 3.25 C-6.87910156 3.22035156 -7.63320312 3.19070312 -8.41015625 3.16015625 C-10.27285953 3.08942068 -12.13643755 3.04245017 -14 3 C-14 2.67 -14 2.34 -14 2 C-9.38 2 -4.76 2 0 2 C0 1.34 0 0.68 0 0 Z " fill="#6C8EBE" transform="translate(251,226)"/>
<path d="M0 0 C2.47878682 2.1554668 3.57563804 3.71119485 4 7 C3.67 7.66 3.34 8.32 3 9 C1.68 8.67 0.36 8.34 -1 8 C-1.04241723 5.66705225 -1.04092937 3.33297433 -1 1 C-0.67 0.67 -0.34 0.34 0 0 Z " fill="#4975B6" transform="translate(245,202)"/>
<path d="M0 0 C1.93681161 -0.08107583 3.8745934 -0.13922475 5.8125 -0.1875 C6.89144531 -0.22230469 7.97039062 -0.25710937 9.08203125 -0.29296875 C12 0 12 0 13.88671875 1.51171875 C14.25410156 2.00285156 14.62148438 2.49398438 15 3 C14.01 3 13.02 3 12 3 C12 3.66 12 4.32 12 5 C8.125 3.125 8.125 3.125 7 2 C4.67182036 1.63239269 2.3381615 1.29758419 0 1 C0 0.67 0 0.34 0 0 Z " fill="#527DE6" transform="translate(302,26)"/>
<path d="M0 0 C0.66 0.33 1.32 0.66 2 1 C-1.49087093 5.0042343 -3.64951939 6.62671065 -9 7 C-9 7.66 -9 8.32 -9 9 C-10.32 8.67 -11.64 8.34 -13 8 C-10.880788 6.63594382 -8.75551882 5.28368225 -6.625 3.9375 C-6.02171875 3.54755859 -5.4184375 3.15761719 -4.796875 2.75585938 C-3.23507443 1.77539568 -1.62007786 0.88083925 0 0 Z " fill="#8CC5F0" transform="translate(140,25)"/>
<path d="M0 0 C1.5625 1.75 1.5625 1.75 3 4 C2.6875 6.25 2.6875 6.25 2 8 C0.23537317 4.91190305 0 3.76687864 0 0 Z M-4 4 C-3.01 4 -2.02 4 -1 4 C-0.34 5.98 0.32 7.96 1 10 C0.34 10.66 -0.32 11.32 -1 12 C-4 6.25 -4 6.25 -4 4 Z " fill="#7194C3" transform="translate(259,230)"/>
<path d="M0 0 C0.33 0 0.66 0 1 0 C1.02698189 1.62490954 1.04638757 3.24994633 1.0625 4.875 C1.07410156 5.77992187 1.08570312 6.68484375 1.09765625 7.6171875 C1 10 1 10 0 12 C-1.32 12 -2.64 12 -4 12 C-3.52309796 10.37433394 -3.04340334 8.74948689 -2.5625 7.125 C-2.29566406 6.22007813 -2.02882812 5.31515625 -1.75390625 4.3828125 C-1 2 -1 2 0 0 Z " fill="#71ABEE" transform="translate(63,107)"/>
<path d="M0 0 C3.91606575 0.53400897 6.39338934 1.19669467 10 3 C4.06 3.495 4.06 3.495 -2 4 C-1.34 2.68 -0.68 1.36 0 0 Z " fill="#4978B5" transform="translate(247,358)"/>
<path d="M0 0 C11.54716981 1.18238994 11.54716981 1.18238994 17 3 C17 3.66 17 4.32 17 5 C10.95198929 4.45018084 5.69398894 3.09570426 0 1 C0 0.67 0 0.34 0 0 Z " fill="#6E90C1" transform="translate(168,353)"/>
<path d="M0 0 C0 2.83967231 -0.40267181 5.23735711 -1 8 C-0.01 8.33 0.98 8.66 2 9 C0.02 9.66 -1.96 10.32 -4 11 C-4.66 10.34 -5.32 9.68 -6 9 C-4.02 6.03 -2.04 3.06 0 0 Z " fill="#85BAE8" transform="translate(77,83)"/>
<path d="M0 0 C0.99 0 1.98 0 3 0 C3 1.32 3 2.64 3 4 C4.32 4.33 5.64 4.66 7 5 C6.67 5.99 6.34 6.98 6 8 C5.01 8 4.02 8 3 8 C3 7.34 3 6.68 3 6 C2.34 6 1.68 6 1 6 C0.67 4.02 0.34 2.04 0 0 Z " fill="#3165F6" transform="translate(347,55)"/>
<path d="M0 0 C0.66 0 1.32 0 2 0 C2.144375 1.11375 2.28875 2.2275 2.4375 3.375 C2.78372035 6.82142047 2.78372035 6.82142047 4 9 C2.35 8.67 0.7 8.34 -1 8 C-1.04241723 5.66705225 -1.04092937 3.33297433 -1 1 C-0.67 0.67 -0.34 0.34 0 0 Z " fill="#0649A5" transform="translate(280,211)"/>
<path d="M0 0 C0.66 0 1.32 0 2 0 C2 0.99 2 1.98 2 3 C7.28 3 12.56 3 18 3 C18 3.33 18 3.66 18 4 C11.4 4 4.8 4 -2 4 C-1.34 2.68 -0.68 1.36 0 0 Z " fill="#60ADE6" transform="translate(125,34)"/>
<path d="M0 0 C0.99 0 1.98 0 3 0 C3 1.98 3 3.96 3 6 C1.02 6 -0.96 6 -3 6 C-2 4 -1 2 0 0 Z " fill="#3565A8" transform="translate(175,243)"/>
<path d="M0 0 C2.35953094 2.35953094 2.49141413 3.77895617 3 7 C2.01 6.34 1.02 5.68 0 5 C-0.33 6.65 -0.66 8.3 -1 10 C-4 6.25 -4 6.25 -4 4 C-2.70766393 2.62689293 -1.37562854 1.28965176 0 0 Z " fill="#678CC0" transform="translate(208,232)"/>
<path d="M0 0 C0.99 0 1.98 0 3 0 C4.83691257 3.78187881 5.15837626 5.94568308 4 10 C3.01 9.67 2.02 9.34 1 9 C0.67 6.03 0.34 3.06 0 0 Z " fill="#3167F2" transform="translate(370,81)"/>
<path d="M0 0 C2.31 0 4.62 0 7 0 C3.0949151 3.55007718 0.02265357 4.81819916 -5 6 C-5 5.34 -5 4.68 -5 4 C-3.35 3.34 -1.7 2.68 0 2 C0 1.34 0 0.68 0 0 Z " fill="#577EB8" transform="translate(309,339)"/>
<path d="M0 0 C0.66 1.32 1.32 2.64 2 4 C-1.99560608 6.83022097 -5.42737323 5.76210446 -10 5 C-10 4.67 -10 4.34 -10 4 C-7.98177083 3.54427083 -5.96354167 3.08854167 -3.9453125 2.6328125 C-1.79280036 2.09525572 -1.79280036 2.09525572 0 0 Z " fill="#B2C0D4" transform="translate(298,245)"/>
<path d="M0 0 C0.99 0 1.98 0 3 0 C2.45276317 3.37462715 1.9451 5.08235 0 8 C-0.66 7.67 -1.32 7.34 -2 7 C-1.34 4.69 -0.68 2.38 0 0 Z " fill="#90A6C7" transform="translate(178,236)"/>
<path d="M0 0 C-1.1446875 0.6496875 -1.1446875 0.6496875 -2.3125 1.3125 C-4.58093768 2.73686785 -6.2199723 4.03260097 -8 6 C-8.66 5.34 -9.32 4.68 -10 4 C-9.67 3.34 -9.34 2.68 -9 2 C-8.34 2 -7.68 2 -7 2 C-7 1.34 -7 0.68 -7 0 C-3.86650268 -1.04449911 -3.01031744 -0.93423645 0 0 Z " fill="#38A2F8" transform="translate(147,27)"/>
<path d="M0 0 C2.475 0.495 2.475 0.495 5 1 C5 2.32 5 3.64 5 5 C3.68 5.33 2.36 5.66 1 6 C0.67 4.02 0.34 2.04 0 0 Z " fill="#1150A3" transform="translate(199,223)"/>
<path d="M0 0 C4.54805635 -0.17835515 7.8794254 0.00214565 12 2 C12 2.33 12 2.66 12 3 C8.04 2.67 4.08 2.34 0 2 C0 1.34 0 0.68 0 0 Z " fill="#6F91C3" transform="translate(195,359)"/>
<path d="M0 0 C1.32 0 2.64 0 4 0 C4 0.99 4 1.98 4 3 C1 5.1875 1 5.1875 -2 7 C-2 5.35 -2 3.7 -2 2 C-1.01 2.33 -0.02 2.66 1 3 C0.67 2.01 0.34 1.02 0 0 Z " fill="#3A6AAE" transform="translate(350,308)"/>
<path d="M0 0 C0.103125 0.639375 0.20625 1.27875 0.3125 1.9375 C0.539375 2.618125 0.76625 3.29875 1 4 C1.99 4.33 2.98 4.66 4 5 C1.36 5 -1.28 5 -4 5 C-2.25 1.125 -2.25 1.125 0 0 Z " fill="#2E62A8" transform="translate(228,244)"/>
<path d="M0 0 C0.66 0 1.32 0 2 0 C2.04254356 1.99954746 2.04080783 4.00041636 2 6 C1 7 1 7 -2.0625 7.0625 C-3.5165625 7.0315625 -3.5165625 7.0315625 -5 7 C-4.34 6.34 -3.68 5.68 -3 5 C-2.01 5 -1.02 5 0 5 C0 3.35 0 1.7 0 0 Z " fill="#5F83B2" transform="translate(260,243)"/>
<path d="M0 0 C0.66 0 1.32 0 2 0 C2 0.66 2 1.32 2 2 C2.66 2 3.32 2 4 2 C4.66 3.98 5.32 5.96 6 8 C4.68 8 3.36 8 2 8 C1.34 5.36 0.68 2.72 0 0 Z " fill="#0748A5" transform="translate(195,212)"/>
<path d="M0 0 C0 0.66 0 1.32 0 2 C-2.31 2.66 -4.62 3.32 -7 4 C-7 3.34 -7 2.68 -7 2 C-7.66 1.67 -8.32 1.34 -9 1 C-5.8035914 -0.06546953 -3.34252724 -0.07427838 0 0 Z " fill="#88A1BE" transform="translate(165,203)"/>
<path d="M0 0 C2.97 0 5.94 0 9 0 C9 0.66 9 1.32 9 2 C9.66 2.33 10.32 2.66 11 3 C6.78121808 3.19622241 3.82989106 2.80230168 0 1 C0 0.67 0 0.34 0 0 Z " fill="#5977A4" transform="translate(290,203)"/>
<path d="M0 0 C2.475 0.495 2.475 0.495 5 1 C4.67 2.65 4.34 4.3 4 6 C3.34 5.67 2.68 5.34 2 5 C2 4.34 2 3.68 2 3 C1.34 3 0.68 3 0 3 C0 2.01 0 1.02 0 0 Z " fill="#0349A6" transform="translate(298,232)"/>
<path d="M0 0 C0.99 0.33 1.98 0.66 3 1 C2.34 3.31 1.68 5.62 1 8 C0.01 7.67 -0.98 7.34 -2 7 C-1.34 4.69 -0.68 2.38 0 0 Z " fill="#9FB1D0" transform="translate(185,219)"/>
<path d="M0 0 C1.65 0 3.3 0 5 0 C3.625 2.5 3.625 2.5 2 5 C1.34 5 0.68 5 0 5 C-0.33 5.66 -0.66 6.32 -1 7 C-0.67 4.69 -0.34 2.38 0 0 Z " fill="#3B92F0" transform="translate(64,108)"/>
<path d="M0 0 C2.475 0.495 2.475 0.495 5 1 C5.33 2.98 5.66 4.96 6 7 C1.125 2.25 1.125 2.25 0 0 Z " fill="#6189BC" transform="translate(90,300)"/>
<path d="M0 0 C0.33 1.32 0.66 2.64 1 4 C-0.65 4.33 -2.3 4.66 -4 5 C-4.66 3.68 -5.32 2.36 -6 1 C-3.03 1.495 -3.03 1.495 0 2 C0 1.34 0 0.68 0 0 Z " fill="#2F63B1" transform="translate(78,274)"/>
<path d="M0 0 C3 3.75 3 3.75 3 6 C1.35 5.67 -0.3 5.34 -2 5 C-2 4.01 -2 3.02 -2 2 C-1.34 2 -0.68 2 0 2 C0 1.34 0 0.68 0 0 Z " fill="#4375B8" transform="translate(201,218)"/>
<path d="M0 0 C0.66 0.33 1.32 0.66 2 1 C1.67 1.99 1.34 2.98 1 4 C-0.65 4.33 -2.3 4.66 -4 5 C-4.33 4.01 -4.66 3.02 -5 2 C-2.625 0.9375 -2.625 0.9375 0 0 Z " fill="#2B66B3" transform="translate(142,336)"/>
<path d="M0 0 C-1.65 1.32 -3.3 2.64 -5 4 C-5.33 2.68 -5.66 1.36 -6 0 C-3.50907189 -1.24546405 -2.58919267 -0.7767578 0 0 Z " fill="#507CB7" transform="translate(363,301)"/>
<path d="M0 0 C0.99 0.33 1.98 0.66 3 1 C3.6875 3.0625 3.6875 3.0625 4 5 C2.35 4.67 0.7 4.34 -1 4 C-0.67 2.68 -0.34 1.36 0 0 Z " fill="#0749A0" transform="translate(292,225)"/>
<path d="M0 0 C0.99 0.99 1.98 1.98 3 3 C2.67 3.66 2.34 4.32 2 5 C1.34 4.67 0.68 4.34 0 4 C0 4.66 0 5.32 0 6 C-0.66 6 -1.32 6 -2 6 C-1.125 1.125 -1.125 1.125 0 0 Z " fill="#829EC6" transform="translate(193,202)"/>
<path d="M0 0 C2.2477975 2.05233685 3.0022242 3.00667261 4 6 C2.02 6 0.04 6 -2 6 C-2 5.34 -2 4.68 -2 4 C-1.01 4 -0.02 4 1 4 C0.67 2.68 0.34 1.36 0 0 Z " fill="#758FD4" transform="translate(377,87)"/>
<path d="M0 0 C6.15234375 0.5859375 6.15234375 0.5859375 8 1 C8.33 1.66 8.66 2.32 9 3 C6.69 3 4.38 3 2 3 C2 2.34 2 1.68 2 1 C1.34 0.67 0.68 0.34 0 0 Z " fill="#7D9DDE" transform="translate(259,7)"/>
<path d="" fill="#FFFFFF" transform="translate(0,0)"/>
<path d="" fill="#FFFFFF" transform="translate(0,0)"/>
<path d="" fill="#FFFFFF" transform="translate(0,0)"/>
<path d="" fill="#FFFFFF" transform="translate(0,0)"/>
<path d="" fill="#FFFFFF" transform="translate(0,0)"/>
<path d="" fill="#FFFFFF" transform="translate(0,0)"/>
<path d="" fill="#FFFFFF" transform="translate(0,0)"/>
<path d="" fill="#FFFFFF" transform="translate(0,0)"/>
<path d="" fill="#FFFFFF" transform="translate(0,0)"/>
<path d="" fill="#FFFFFF" transform="translate(0,0)"/>
<path d="" fill="#FFFFFF" transform="translate(0,0)"/>
<path d="" fill="#FFFFFF" transform="translate(0,0)"/>
<path d="" fill="#FFFFFF" transform="translate(0,0)"/>
<path d="" fill="#FFFFFF" transform="translate(0,0)"/>
<path d="" fill="#FFFFFF" transform="translate(0,0)"/>
<path d="" fill="#FFFFFF" transform="translate(0,0)"/>
<path d="" fill="#FFFFFF" transform="translate(0,0)"/>
<path d="" fill="#FFFFFF" transform="translate(0,0)"/>
<path d="" fill="#FFFFFF" transform="translate(0,0)"/>
<path d="" fill="#FFFFFF" transform="translate(0,0)"/>
<path d="" fill="#FFFFFF" transform="translate(0,0)"/>
<path d="" fill="#FFFFFF" transform="translate(0,0)"/>
<path d="" fill="#FFFFFF" transform="translate(0,0)"/>
<path d="" fill="#FFFFFF" transform="translate(0,0)"/>
<path d="" fill="#FFFFFF" transform="translate(0,0)"/>
<path d="" fill="#FFFFFF" transform="translate(0,0)"/>
<path d="" fill="#FFFFFF" transform="translate(0,0)"/>
<path d="" fill="#FFFFFF" transform="translate(0,0)"/>
<path d="" fill="#FFFFFF" transform="translate(0,0)"/>
<path d="" fill="#FFFFFF" transform="translate(0,0)"/>
<path d="" fill="#FFFFFF" transform="translate(0,0)"/>
<path d="" fill="#FFFFFF" transform="translate(0,0)"/>
<path d="" fill="#FFFFFF" transform="translate(0,0)"/>
<path d="" fill="#FFFFFF" transform="translate(0,0)"/>
<path d="" fill="#FFFFFF" transform="translate(0,0)"/>
<path d="" fill="#FFFFFF" transform="translate(0,0)"/>
<path d="" fill="#FFFFFF" transform="translate(0,0)"/>
<path d="" fill="#FFFFFF" transform="translate(0,0)"/>
<path d="" fill="#FFFFFF" transform="translate(0,0)"/>
<path d="" fill="#FFFFFF" transform="translate(0,0)"/>
<path d="" fill="#FFFFFF" transform="translate(0,0)"/>
<path d="" fill="#FFFFFF" transform="translate(0,0)"/>
<path d="" fill="#FFFFFF" transform="translate(0,0)"/>
</svg>
